M48
; DRILL file {KiCad (6.0.9)} date Wed Dec 21 18:09:47 2022
; FORMAT={-:-/ absolute / inch / decimal}
; #@! TF.CreationDate,2022-12-21T18:09:47-05:00
; #@! TF.GenerationSoftware,Kicad,Pcbnew,(6.0.9)
; #@! TF.FileFunction,Plated,1,2,PTH
FMAT,2
INCH
; #@! TA.AperFunction,Plated,PTH,ViaDrill
T1C0.0157
; #@! TA.AperFunction,Plated,PTH,ComponentDrill
T2C0.0300
; #@! TA.AperFunction,Plated,PTH,ComponentDrill
T3C0.0394
; #@! TA.AperFunction,Plated,PTH,ComponentDrill
T4C0.0409
; #@! TA.AperFunction,Plated,PTH,ComponentDrill
T5C0.0430
; #@! TA.AperFunction,Plated,PTH,ComponentDrill
T6C0.0450
; #@! TA.AperFunction,Plated,PTH,ComponentDrill
T7C0.0470
%
G90
G05
T1
X4.2Y-2.71
X4.38Y-4.06
X4.43Y-2.68
X4.5434Y-2.6802
X4.92Y-2.67
X4.94Y-2.08
X4.9409Y-3.0531
X4.9783Y-2.1496
X5.1555Y-2.6555
X5.1693Y-2.9508
X5.17Y-3.74
X5.22Y-2.9
X5.42Y-2.14
X5.43Y-2.78
X5.45Y-2.44
X5.4685Y-2.8976
X5.5Y-2.73
X5.52Y-2.15
X5.61Y-2.69
X5.71Y-2.92
X5.75Y-2.59
X5.84Y-2.37
X5.9094Y-2.5492
X5.9094Y-2.689
T2
X4.91Y-2.9
X4.9887Y-2.9
T3
X4.8185Y-2.5051
X4.8685Y-2.3051
X4.9185Y-2.5051
X4.9685Y-2.3051
X5.0185Y-2.5051
X5.0685Y-2.3051
X5.1185Y-2.5051
X5.1685Y-2.3051
X5.2185Y-2.5051
X5.2685Y-2.3051
X5.3185Y-2.5051
X5.3685Y-2.3051
X5.4185Y-2.5051
X5.4685Y-2.3051
X5.5185Y-2.5051
T4
X4.3524Y-1.8445
T5
X3.99Y-2.93
X3.99Y-3.03
X4.0Y-3.28
X4.0Y-3.38
X4.0015Y-3.605
X4.0015Y-3.705
X4.09Y-2.93
X4.09Y-3.03
X4.1Y-3.28
X4.1Y-3.38
X4.1015Y-3.605
X4.1015Y-3.705
X6.18Y-2.88
X6.18Y-2.98
X6.18Y-3.27
X6.18Y-3.37
X6.19Y-3.66
X6.19Y-3.76
X6.28Y-2.88
X6.28Y-2.98
X6.28Y-3.27
X6.28Y-3.37
X6.29Y-3.66
X6.29Y-3.76
T6
X4.36Y-2.06
X4.36Y-2.16
X4.4Y-2.97
X4.4Y-3.29
X4.4Y-3.6
X4.5Y-2.97
X4.5Y-3.29
X4.5Y-3.6
X4.78Y-3.9
X4.88Y-3.9
X5.01Y-1.78
X5.01Y-1.88
X5.11Y-1.78
X5.11Y-1.88
X5.21Y-1.78
X5.21Y-1.88
X5.31Y-1.78
X5.31Y-1.88
X5.79Y-3.37
X5.79Y-3.75
X5.81Y-2.98
X5.89Y-3.37
X5.89Y-3.75
X5.91Y-2.98
T7
X5.0822Y-4.03
X5.22Y-4.03
X5.3578Y-4.03
T0
M30
