%TF.GenerationSoftware,KiCad,Pcbnew,(6.0.9)*%
%TF.CreationDate,2022-12-21T18:09:38-05:00*%
%TF.ProjectId,MotorTestingFixture,4d6f746f-7254-4657-9374-696e67466978,v1*%
%TF.SameCoordinates,Original*%
%TF.FileFunction,Legend,Top*%
%TF.FilePolarity,Positive*%
%FSLAX46Y46*%
G04 Gerber Fmt 4.6, Leading zero omitted, Abs format (unit mm)*
G04 Created by KiCad (PCBNEW (6.0.9)) date 2022-12-21 18:09:38*
%MOMM*%
%LPD*%
G01*
G04 APERTURE LIST*
%ADD10C,0.150000*%
%ADD11C,0.300000*%
%ADD12C,0.100000*%
%ADD13C,0.098425*%
%ADD14C,0.103985*%
%ADD15C,0.120000*%
%ADD16C,0.127000*%
%ADD17C,0.200000*%
G04 APERTURE END LIST*
D10*
X127285714Y-42870380D02*
X126714285Y-42870380D01*
X127000000Y-42870380D02*
X127000000Y-41870380D01*
X126904761Y-42013238D01*
X126809523Y-42108476D01*
X126714285Y-42156095D01*
X127968476Y-106894380D02*
X128301809Y-107894380D01*
X128635142Y-106894380D01*
X128920857Y-107846761D02*
X129063714Y-107894380D01*
X129301809Y-107894380D01*
X129397047Y-107846761D01*
X129444666Y-107799142D01*
X129492285Y-107703904D01*
X129492285Y-107608666D01*
X129444666Y-107513428D01*
X129397047Y-107465809D01*
X129301809Y-107418190D01*
X129111333Y-107370571D01*
X129016095Y-107322952D01*
X128968476Y-107275333D01*
X128920857Y-107180095D01*
X128920857Y-107084857D01*
X128968476Y-106989619D01*
X129016095Y-106942000D01*
X129111333Y-106894380D01*
X129349428Y-106894380D01*
X129492285Y-106942000D01*
X126968285Y-49585619D02*
X127015904Y-49538000D01*
X127111142Y-49490380D01*
X127349238Y-49490380D01*
X127444476Y-49538000D01*
X127492095Y-49585619D01*
X127539714Y-49680857D01*
X127539714Y-49776095D01*
X127492095Y-49918952D01*
X126920666Y-50490380D01*
X127539714Y-50490380D01*
X134286666Y-41870380D02*
X134953333Y-41870380D01*
X134524761Y-42870380D01*
X105934000Y-54618000D02*
X105838761Y-54570380D01*
X105695904Y-54570380D01*
X105553047Y-54618000D01*
X105457809Y-54713238D01*
X105410190Y-54808476D01*
X105362571Y-54998952D01*
X105362571Y-55141809D01*
X105410190Y-55332285D01*
X105457809Y-55427523D01*
X105553047Y-55522761D01*
X105695904Y-55570380D01*
X105791142Y-55570380D01*
X105934000Y-55522761D01*
X105981619Y-55475142D01*
X105981619Y-55141809D01*
X105791142Y-55141809D01*
X106362571Y-55284666D02*
X106838761Y-55284666D01*
X106267333Y-55570380D02*
X106600666Y-54570380D01*
X106934000Y-55570380D01*
X107124476Y-54570380D02*
X107695904Y-54570380D01*
X107410190Y-55570380D02*
X107410190Y-54570380D01*
X108029238Y-55046571D02*
X108362571Y-55046571D01*
X108505428Y-55570380D02*
X108029238Y-55570380D01*
X108029238Y-54570380D01*
X108505428Y-54570380D01*
D11*
X119828571Y-111715476D02*
X119828571Y-110465476D01*
X120328571Y-111358333D01*
X120828571Y-110465476D01*
X120828571Y-111715476D01*
X121828571Y-110465476D02*
X122114285Y-110465476D01*
X122257142Y-110525000D01*
X122400000Y-110644047D01*
X122471428Y-110882142D01*
X122471428Y-111298809D01*
X122400000Y-111536904D01*
X122257142Y-111655952D01*
X122114285Y-111715476D01*
X121828571Y-111715476D01*
X121685714Y-111655952D01*
X121542857Y-111536904D01*
X121471428Y-111298809D01*
X121471428Y-110882142D01*
X121542857Y-110644047D01*
X121685714Y-110525000D01*
X121828571Y-110465476D01*
X122900000Y-110465476D02*
X123757142Y-110465476D01*
X123328571Y-111715476D02*
X123328571Y-110465476D01*
X124542857Y-110465476D02*
X124828571Y-110465476D01*
X124971428Y-110525000D01*
X125114285Y-110644047D01*
X125185714Y-110882142D01*
X125185714Y-111298809D01*
X125114285Y-111536904D01*
X124971428Y-111655952D01*
X124828571Y-111715476D01*
X124542857Y-111715476D01*
X124400000Y-111655952D01*
X124257142Y-111536904D01*
X124185714Y-111298809D01*
X124185714Y-110882142D01*
X124257142Y-110644047D01*
X124400000Y-110525000D01*
X124542857Y-110465476D01*
X126685714Y-111715476D02*
X126185714Y-111120238D01*
X125828571Y-111715476D02*
X125828571Y-110465476D01*
X126400000Y-110465476D01*
X126542857Y-110525000D01*
X126614285Y-110584523D01*
X126685714Y-110703571D01*
X126685714Y-110882142D01*
X126614285Y-111001190D01*
X126542857Y-111060714D01*
X126400000Y-111120238D01*
X125828571Y-111120238D01*
X128257142Y-110465476D02*
X129114285Y-110465476D01*
X128685714Y-111715476D02*
X128685714Y-110465476D01*
X129614285Y-111060714D02*
X130114285Y-111060714D01*
X130328571Y-111715476D02*
X129614285Y-111715476D01*
X129614285Y-110465476D01*
X130328571Y-110465476D01*
X130900000Y-111655952D02*
X131114285Y-111715476D01*
X131471428Y-111715476D01*
X131614285Y-111655952D01*
X131685714Y-111596428D01*
X131757142Y-111477380D01*
X131757142Y-111358333D01*
X131685714Y-111239285D01*
X131614285Y-111179761D01*
X131471428Y-111120238D01*
X131185714Y-111060714D01*
X131042857Y-111001190D01*
X130971428Y-110941666D01*
X130900000Y-110822619D01*
X130900000Y-110703571D01*
X130971428Y-110584523D01*
X131042857Y-110525000D01*
X131185714Y-110465476D01*
X131542857Y-110465476D01*
X131757142Y-110525000D01*
X132185714Y-110465476D02*
X133042857Y-110465476D01*
X132614285Y-111715476D02*
X132614285Y-110465476D01*
X135185714Y-111060714D02*
X134685714Y-111060714D01*
X134685714Y-111715476D02*
X134685714Y-110465476D01*
X135400000Y-110465476D01*
X135971428Y-111715476D02*
X135971428Y-110465476D01*
X136542857Y-110465476D02*
X137542857Y-111715476D01*
X137542857Y-110465476D02*
X136542857Y-111715476D01*
X137900000Y-110465476D02*
X138757142Y-110465476D01*
X138328571Y-111715476D02*
X138328571Y-110465476D01*
X139257142Y-110465476D02*
X139257142Y-111477380D01*
X139328571Y-111596428D01*
X139400000Y-111655952D01*
X139542857Y-111715476D01*
X139828571Y-111715476D01*
X139971428Y-111655952D01*
X140042857Y-111596428D01*
X140114285Y-111477380D01*
X140114285Y-110465476D01*
X141685714Y-111715476D02*
X141185714Y-111120238D01*
X140828571Y-111715476D02*
X140828571Y-110465476D01*
X141400000Y-110465476D01*
X141542857Y-110525000D01*
X141614285Y-110584523D01*
X141685714Y-110703571D01*
X141685714Y-110882142D01*
X141614285Y-111001190D01*
X141542857Y-111060714D01*
X141400000Y-111120238D01*
X140828571Y-111120238D01*
X142328571Y-111060714D02*
X142828571Y-111060714D01*
X143042857Y-111715476D02*
X142328571Y-111715476D01*
X142328571Y-110465476D01*
X143042857Y-110465476D01*
D10*
X135310666Y-106894380D02*
X135644000Y-107894380D01*
X135977333Y-106894380D01*
X136310666Y-107894380D02*
X136310666Y-106894380D01*
X136548761Y-106894380D01*
X136691619Y-106942000D01*
X136786857Y-107037238D01*
X136834476Y-107132476D01*
X136882095Y-107322952D01*
X136882095Y-107465809D01*
X136834476Y-107656285D01*
X136786857Y-107751523D01*
X136691619Y-107846761D01*
X136548761Y-107894380D01*
X136310666Y-107894380D01*
X129984476Y-49823714D02*
X129984476Y-50490380D01*
X129746380Y-49442761D02*
X129508285Y-50157047D01*
X130127333Y-50157047D01*
X141097047Y-70937428D02*
X141858952Y-70937428D01*
X141478000Y-71318380D02*
X141478000Y-70556476D01*
X142367047Y-72969428D02*
X143128952Y-72969428D01*
X142748000Y-73350380D02*
X142748000Y-72588476D01*
X113664952Y-69921428D02*
X112903047Y-69921428D01*
X113284000Y-70302380D02*
X113284000Y-69540476D01*
X99155809Y-52427142D02*
X99108190Y-52474761D01*
X98965333Y-52522380D01*
X98870095Y-52522380D01*
X98727238Y-52474761D01*
X98632000Y-52379523D01*
X98584380Y-52284285D01*
X98536761Y-52093809D01*
X98536761Y-51950952D01*
X98584380Y-51760476D01*
X98632000Y-51665238D01*
X98727238Y-51570000D01*
X98870095Y-51522380D01*
X98965333Y-51522380D01*
X99108190Y-51570000D01*
X99155809Y-51617619D01*
X99774857Y-51522380D02*
X99965333Y-51522380D01*
X100060571Y-51570000D01*
X100155809Y-51665238D01*
X100203428Y-51855714D01*
X100203428Y-52189047D01*
X100155809Y-52379523D01*
X100060571Y-52474761D01*
X99965333Y-52522380D01*
X99774857Y-52522380D01*
X99679619Y-52474761D01*
X99584380Y-52379523D01*
X99536761Y-52189047D01*
X99536761Y-51855714D01*
X99584380Y-51665238D01*
X99679619Y-51570000D01*
X99774857Y-51522380D01*
X100632000Y-51522380D02*
X100632000Y-52331904D01*
X100679619Y-52427142D01*
X100727238Y-52474761D01*
X100822476Y-52522380D01*
X101012952Y-52522380D01*
X101108190Y-52474761D01*
X101155809Y-52427142D01*
X101203428Y-52331904D01*
X101203428Y-51522380D01*
X101679619Y-52522380D02*
X101679619Y-51522380D01*
X102251047Y-52522380D01*
X102251047Y-51522380D01*
X102584380Y-51522380D02*
X103155809Y-51522380D01*
X102870095Y-52522380D02*
X102870095Y-51522380D01*
X103489142Y-51998571D02*
X103822476Y-51998571D01*
X103965333Y-52522380D02*
X103489142Y-52522380D01*
X103489142Y-51522380D01*
X103965333Y-51522380D01*
X104965333Y-52522380D02*
X104632000Y-52046190D01*
X104393904Y-52522380D02*
X104393904Y-51522380D01*
X104774857Y-51522380D01*
X104870095Y-51570000D01*
X104917714Y-51617619D01*
X104965333Y-51712857D01*
X104965333Y-51855714D01*
X104917714Y-51950952D01*
X104870095Y-51998571D01*
X104774857Y-52046190D01*
X104393904Y-52046190D01*
X106155809Y-52141428D02*
X106917714Y-52141428D01*
X107251047Y-51522380D02*
X107584380Y-52522380D01*
X107917714Y-51522380D01*
X108251047Y-51998571D02*
X108584380Y-51998571D01*
X108727238Y-52522380D02*
X108251047Y-52522380D01*
X108251047Y-51522380D01*
X108727238Y-51522380D01*
X115188952Y-69921428D02*
X114427047Y-69921428D01*
X114808000Y-70302380D02*
X114808000Y-69540476D01*
X134778761Y-49918952D02*
X134683523Y-49871333D01*
X134635904Y-49823714D01*
X134588285Y-49728476D01*
X134588285Y-49680857D01*
X134635904Y-49585619D01*
X134683523Y-49538000D01*
X134778761Y-49490380D01*
X134969238Y-49490380D01*
X135064476Y-49538000D01*
X135112095Y-49585619D01*
X135159714Y-49680857D01*
X135159714Y-49728476D01*
X135112095Y-49823714D01*
X135064476Y-49871333D01*
X134969238Y-49918952D01*
X134778761Y-49918952D01*
X134683523Y-49966571D01*
X134635904Y-50014190D01*
X134588285Y-50109428D01*
X134588285Y-50299904D01*
X134635904Y-50395142D01*
X134683523Y-50442761D01*
X134778761Y-50490380D01*
X134969238Y-50490380D01*
X135064476Y-50442761D01*
X135112095Y-50395142D01*
X135159714Y-50299904D01*
X135159714Y-50109428D01*
X135112095Y-50014190D01*
X135064476Y-49966571D01*
X134969238Y-49918952D01*
X129206666Y-41870380D02*
X129825714Y-41870380D01*
X129492380Y-42251333D01*
X129635238Y-42251333D01*
X129730476Y-42298952D01*
X129778095Y-42346571D01*
X129825714Y-42441809D01*
X129825714Y-42679904D01*
X129778095Y-42775142D01*
X129730476Y-42822761D01*
X129635238Y-42870380D01*
X129349523Y-42870380D01*
X129254285Y-42822761D01*
X129206666Y-42775142D01*
X132318095Y-41870380D02*
X131841904Y-41870380D01*
X131794285Y-42346571D01*
X131841904Y-42298952D01*
X131937142Y-42251333D01*
X132175238Y-42251333D01*
X132270476Y-42298952D01*
X132318095Y-42346571D01*
X132365714Y-42441809D01*
X132365714Y-42679904D01*
X132318095Y-42775142D01*
X132270476Y-42822761D01*
X132175238Y-42870380D01*
X131937142Y-42870380D01*
X131841904Y-42822761D01*
X131794285Y-42775142D01*
X132524476Y-49490380D02*
X132334000Y-49490380D01*
X132238761Y-49538000D01*
X132191142Y-49585619D01*
X132095904Y-49728476D01*
X132048285Y-49918952D01*
X132048285Y-50299904D01*
X132095904Y-50395142D01*
X132143523Y-50442761D01*
X132238761Y-50490380D01*
X132429238Y-50490380D01*
X132524476Y-50442761D01*
X132572095Y-50395142D01*
X132619714Y-50299904D01*
X132619714Y-50061809D01*
X132572095Y-49966571D01*
X132524476Y-49918952D01*
X132429238Y-49871333D01*
X132238761Y-49871333D01*
X132143523Y-49918952D01*
X132095904Y-49966571D01*
X132048285Y-50061809D01*
D12*
X109464285Y-44126071D02*
X109440476Y-44149880D01*
X109369047Y-44173690D01*
X109321428Y-44173690D01*
X109250000Y-44149880D01*
X109202380Y-44102261D01*
X109178571Y-44054642D01*
X109154761Y-43959404D01*
X109154761Y-43887976D01*
X109178571Y-43792738D01*
X109202380Y-43745119D01*
X109250000Y-43697500D01*
X109321428Y-43673690D01*
X109369047Y-43673690D01*
X109440476Y-43697500D01*
X109464285Y-43721309D01*
X109750000Y-44173690D02*
X109702380Y-44149880D01*
X109678571Y-44126071D01*
X109654761Y-44078452D01*
X109654761Y-43935595D01*
X109678571Y-43887976D01*
X109702380Y-43864166D01*
X109750000Y-43840357D01*
X109821428Y-43840357D01*
X109869047Y-43864166D01*
X109892857Y-43887976D01*
X109916666Y-43935595D01*
X109916666Y-44078452D01*
X109892857Y-44126071D01*
X109869047Y-44149880D01*
X109821428Y-44173690D01*
X109750000Y-44173690D01*
X110345238Y-43840357D02*
X110345238Y-44173690D01*
X110130952Y-43840357D02*
X110130952Y-44102261D01*
X110154761Y-44149880D01*
X110202380Y-44173690D01*
X110273809Y-44173690D01*
X110321428Y-44149880D01*
X110345238Y-44126071D01*
X110583333Y-43840357D02*
X110583333Y-44173690D01*
X110583333Y-43887976D02*
X110607142Y-43864166D01*
X110654761Y-43840357D01*
X110726190Y-43840357D01*
X110773809Y-43864166D01*
X110797619Y-43911785D01*
X110797619Y-44173690D01*
X110964285Y-43840357D02*
X111154761Y-43840357D01*
X111035714Y-43673690D02*
X111035714Y-44102261D01*
X111059523Y-44149880D01*
X111107142Y-44173690D01*
X111154761Y-44173690D01*
X111511904Y-44149880D02*
X111464285Y-44173690D01*
X111369047Y-44173690D01*
X111321428Y-44149880D01*
X111297619Y-44102261D01*
X111297619Y-43911785D01*
X111321428Y-43864166D01*
X111369047Y-43840357D01*
X111464285Y-43840357D01*
X111511904Y-43864166D01*
X111535714Y-43911785D01*
X111535714Y-43959404D01*
X111297619Y-44007023D01*
X111750000Y-44173690D02*
X111750000Y-43840357D01*
X111750000Y-43935595D02*
X111773809Y-43887976D01*
X111797619Y-43864166D01*
X111845238Y-43840357D01*
X111892857Y-43840357D01*
X108880952Y-44978690D02*
X108880952Y-44478690D01*
X109071428Y-44478690D01*
X109119047Y-44502500D01*
X109142857Y-44526309D01*
X109166666Y-44573928D01*
X109166666Y-44645357D01*
X109142857Y-44692976D01*
X109119047Y-44716785D01*
X109071428Y-44740595D01*
X108880952Y-44740595D01*
X109333333Y-44478690D02*
X109452380Y-44978690D01*
X109547619Y-44621547D01*
X109642857Y-44978690D01*
X109761904Y-44478690D01*
X110238095Y-44978690D02*
X110071428Y-44740595D01*
X109952380Y-44978690D02*
X109952380Y-44478690D01*
X110142857Y-44478690D01*
X110190476Y-44502500D01*
X110214285Y-44526309D01*
X110238095Y-44573928D01*
X110238095Y-44645357D01*
X110214285Y-44692976D01*
X110190476Y-44716785D01*
X110142857Y-44740595D01*
X109952380Y-44740595D01*
X111095238Y-44502500D02*
X111047619Y-44478690D01*
X110976190Y-44478690D01*
X110904761Y-44502500D01*
X110857142Y-44550119D01*
X110833333Y-44597738D01*
X110809523Y-44692976D01*
X110809523Y-44764404D01*
X110833333Y-44859642D01*
X110857142Y-44907261D01*
X110904761Y-44954880D01*
X110976190Y-44978690D01*
X111023809Y-44978690D01*
X111095238Y-44954880D01*
X111119047Y-44931071D01*
X111119047Y-44764404D01*
X111023809Y-44764404D01*
X111333333Y-44978690D02*
X111333333Y-44478690D01*
X111619047Y-44978690D01*
X111619047Y-44478690D01*
X111857142Y-44978690D02*
X111857142Y-44478690D01*
X111976190Y-44478690D01*
X112047619Y-44502500D01*
X112095238Y-44550119D01*
X112119047Y-44597738D01*
X112142857Y-44692976D01*
X112142857Y-44764404D01*
X112119047Y-44859642D01*
X112095238Y-44907261D01*
X112047619Y-44954880D01*
X111976190Y-44978690D01*
X111857142Y-44978690D01*
D10*
X131826095Y-106942000D02*
X131730857Y-106894380D01*
X131588000Y-106894380D01*
X131445142Y-106942000D01*
X131349904Y-107037238D01*
X131302285Y-107132476D01*
X131254666Y-107322952D01*
X131254666Y-107465809D01*
X131302285Y-107656285D01*
X131349904Y-107751523D01*
X131445142Y-107846761D01*
X131588000Y-107894380D01*
X131683238Y-107894380D01*
X131826095Y-107846761D01*
X131873714Y-107799142D01*
X131873714Y-107465809D01*
X131683238Y-107465809D01*
X132302285Y-107894380D02*
X132302285Y-106894380D01*
X132873714Y-107894380D01*
X132873714Y-106894380D01*
X133349904Y-107894380D02*
X133349904Y-106894380D01*
X133588000Y-106894380D01*
X133730857Y-106942000D01*
X133826095Y-107037238D01*
X133873714Y-107132476D01*
X133921333Y-107322952D01*
X133921333Y-107465809D01*
X133873714Y-107656285D01*
X133826095Y-107751523D01*
X133730857Y-107846761D01*
X133588000Y-107894380D01*
X133349904Y-107894380D01*
X135509047Y-76779428D02*
X136270952Y-76779428D01*
X135890000Y-77160380D02*
X135890000Y-76398476D01*
%TO.C,J4*%
X141024667Y-101244380D02*
X141024667Y-101958666D01*
X140977048Y-102101523D01*
X140881810Y-102196761D01*
X140738953Y-102244380D01*
X140643715Y-102244380D01*
X141929429Y-101577714D02*
X141929429Y-102244380D01*
X141691334Y-101196761D02*
X141453239Y-101911047D01*
X142072286Y-101911047D01*
X139918001Y-101344380D02*
X139918001Y-101582476D01*
X139679905Y-101487238D02*
X139918001Y-101582476D01*
X140156096Y-101487238D01*
X139775143Y-101772952D02*
X139918001Y-101582476D01*
X140060858Y-101772952D01*
D13*
%TO.C,C3*%
X115744607Y-62103616D02*
X115763355Y-62122364D01*
X115782102Y-62178607D01*
X115782102Y-62216102D01*
X115763355Y-62272345D01*
X115725859Y-62309841D01*
X115688364Y-62328588D01*
X115613373Y-62347336D01*
X115557130Y-62347336D01*
X115482140Y-62328588D01*
X115444644Y-62309841D01*
X115407149Y-62272345D01*
X115388401Y-62216102D01*
X115388401Y-62178607D01*
X115407149Y-62122364D01*
X115425897Y-62103616D01*
X115388401Y-61972383D02*
X115388401Y-61728663D01*
X115538383Y-61859897D01*
X115538383Y-61803654D01*
X115557130Y-61766158D01*
X115575878Y-61747411D01*
X115613373Y-61728663D01*
X115707112Y-61728663D01*
X115744607Y-61747411D01*
X115763355Y-61766158D01*
X115782102Y-61803654D01*
X115782102Y-61916140D01*
X115763355Y-61953635D01*
X115744607Y-61972383D01*
D10*
%TO.C,D2*%
X139629777Y-73835684D02*
X139629777Y-72832802D01*
X139868559Y-72832802D01*
X140011827Y-72880559D01*
X140107340Y-72976071D01*
X140155096Y-73071584D01*
X140202853Y-73262609D01*
X140202853Y-73405878D01*
X140155096Y-73596903D01*
X140107340Y-73692415D01*
X140011827Y-73787928D01*
X139868559Y-73835684D01*
X139629777Y-73835684D01*
X140584903Y-72928315D02*
X140632659Y-72880559D01*
X140728172Y-72832802D01*
X140966953Y-72832802D01*
X141062466Y-72880559D01*
X141110222Y-72928315D01*
X141157978Y-73023827D01*
X141157978Y-73119340D01*
X141110222Y-73262609D01*
X140537147Y-73835684D01*
X141157978Y-73835684D01*
%TO.C,CR4*%
X158652733Y-62080492D02*
X158605114Y-62128111D01*
X158462257Y-62175730D01*
X158367019Y-62175730D01*
X158224161Y-62128111D01*
X158128923Y-62032873D01*
X158081304Y-61937635D01*
X158033685Y-61747159D01*
X158033685Y-61604302D01*
X158081304Y-61413826D01*
X158128923Y-61318588D01*
X158224161Y-61223350D01*
X158367019Y-61175730D01*
X158462257Y-61175730D01*
X158605114Y-61223350D01*
X158652733Y-61270969D01*
X159652733Y-62175730D02*
X159319400Y-61699540D01*
X159081304Y-62175730D02*
X159081304Y-61175730D01*
X159462257Y-61175730D01*
X159557495Y-61223350D01*
X159605114Y-61270969D01*
X159652733Y-61366207D01*
X159652733Y-61509064D01*
X159605114Y-61604302D01*
X159557495Y-61651921D01*
X159462257Y-61699540D01*
X159081304Y-61699540D01*
X160509876Y-61509064D02*
X160509876Y-62175730D01*
X160271780Y-61128111D02*
X160033685Y-61842397D01*
X160652733Y-61842397D01*
%TO.C,C1*%
X125457333Y-70127142D02*
X125409714Y-70174761D01*
X125266857Y-70222380D01*
X125171619Y-70222380D01*
X125028761Y-70174761D01*
X124933523Y-70079523D01*
X124885904Y-69984285D01*
X124838285Y-69793809D01*
X124838285Y-69650952D01*
X124885904Y-69460476D01*
X124933523Y-69365238D01*
X125028761Y-69270000D01*
X125171619Y-69222380D01*
X125266857Y-69222380D01*
X125409714Y-69270000D01*
X125457333Y-69317619D01*
X126409714Y-70222380D02*
X125838285Y-70222380D01*
X126124000Y-70222380D02*
X126124000Y-69222380D01*
X126028761Y-69365238D01*
X125933523Y-69460476D01*
X125838285Y-69508095D01*
%TO.C,LED3*%
X143580952Y-71292380D02*
X143104761Y-71292380D01*
X143104761Y-70292380D01*
X143914285Y-70768571D02*
X144247619Y-70768571D01*
X144390476Y-71292380D02*
X143914285Y-71292380D01*
X143914285Y-70292380D01*
X144390476Y-70292380D01*
X144819047Y-71292380D02*
X144819047Y-70292380D01*
X145057142Y-70292380D01*
X145200000Y-70340000D01*
X145295238Y-70435238D01*
X145342857Y-70530476D01*
X145390476Y-70720952D01*
X145390476Y-70863809D01*
X145342857Y-71054285D01*
X145295238Y-71149523D01*
X145200000Y-71244761D01*
X145057142Y-71292380D01*
X144819047Y-71292380D01*
X145723809Y-70292380D02*
X146342857Y-70292380D01*
X146009523Y-70673333D01*
X146152380Y-70673333D01*
X146247619Y-70720952D01*
X146295238Y-70768571D01*
X146342857Y-70863809D01*
X146342857Y-71101904D01*
X146295238Y-71197142D01*
X146247619Y-71244761D01*
X146152380Y-71292380D01*
X145866666Y-71292380D01*
X145771428Y-71244761D01*
X145723809Y-71197142D01*
%TO.C,J10*%
X149304476Y-96988380D02*
X149304476Y-97702666D01*
X149256857Y-97845523D01*
X149161619Y-97940761D01*
X149018761Y-97988380D01*
X148923523Y-97988380D01*
X150304476Y-97988380D02*
X149733047Y-97988380D01*
X150018761Y-97988380D02*
X150018761Y-96988380D01*
X149923523Y-97131238D01*
X149828285Y-97226476D01*
X149733047Y-97274095D01*
X150923523Y-96988380D02*
X151018761Y-96988380D01*
X151114000Y-97036000D01*
X151161619Y-97083619D01*
X151209238Y-97178857D01*
X151256857Y-97369333D01*
X151256857Y-97607428D01*
X151209238Y-97797904D01*
X151161619Y-97893142D01*
X151114000Y-97940761D01*
X151018761Y-97988380D01*
X150923523Y-97988380D01*
X150828285Y-97940761D01*
X150780666Y-97893142D01*
X150733047Y-97797904D01*
X150685428Y-97607428D01*
X150685428Y-97369333D01*
X150733047Y-97178857D01*
X150780666Y-97083619D01*
X150828285Y-97036000D01*
X150923523Y-96988380D01*
%TO.C,J13*%
X98699881Y-91486523D02*
X99414167Y-91486523D01*
X99557024Y-91534142D01*
X99652262Y-91629380D01*
X99699881Y-91772238D01*
X99699881Y-91867476D01*
X99699881Y-90486523D02*
X99699881Y-91057952D01*
X99699881Y-90772238D02*
X98699881Y-90772238D01*
X98842739Y-90867476D01*
X98937977Y-90962714D01*
X98985596Y-91057952D01*
X98699881Y-90153190D02*
X98699881Y-89534142D01*
X99080834Y-89867476D01*
X99080834Y-89724619D01*
X99128453Y-89629380D01*
X99176072Y-89581761D01*
X99271310Y-89534142D01*
X99509405Y-89534142D01*
X99604643Y-89581761D01*
X99652262Y-89629380D01*
X99699881Y-89724619D01*
X99699881Y-90010333D01*
X99652262Y-90105571D01*
X99604643Y-90153190D01*
%TO.C,U1*%
X130518095Y-52382380D02*
X130518095Y-53191904D01*
X130565714Y-53287142D01*
X130613333Y-53334761D01*
X130708571Y-53382380D01*
X130899047Y-53382380D01*
X130994285Y-53334761D01*
X131041904Y-53287142D01*
X131089523Y-53191904D01*
X131089523Y-52382380D01*
X132089523Y-53382380D02*
X131518095Y-53382380D01*
X131803809Y-53382380D02*
X131803809Y-52382380D01*
X131708571Y-52525238D01*
X131613333Y-52620476D01*
X131518095Y-52668095D01*
D13*
%TO.C,C2*%
X132968383Y-70278607D02*
X132949635Y-70297355D01*
X132893392Y-70316102D01*
X132855897Y-70316102D01*
X132799654Y-70297355D01*
X132762158Y-70259859D01*
X132743411Y-70222364D01*
X132724663Y-70147373D01*
X132724663Y-70091130D01*
X132743411Y-70016140D01*
X132762158Y-69978644D01*
X132799654Y-69941149D01*
X132855897Y-69922401D01*
X132893392Y-69922401D01*
X132949635Y-69941149D01*
X132968383Y-69959897D01*
X133118364Y-69959897D02*
X133137112Y-69941149D01*
X133174607Y-69922401D01*
X133268345Y-69922401D01*
X133305841Y-69941149D01*
X133324588Y-69959897D01*
X133343336Y-69997392D01*
X133343336Y-70034887D01*
X133324588Y-70091130D01*
X133099616Y-70316102D01*
X133343336Y-70316102D01*
D10*
%TO.C,J15*%
X161504380Y-73961523D02*
X162218666Y-73961523D01*
X162361523Y-74009142D01*
X162456761Y-74104380D01*
X162504380Y-74247238D01*
X162504380Y-74342476D01*
X162504380Y-72961523D02*
X162504380Y-73532952D01*
X162504380Y-73247238D02*
X161504380Y-73247238D01*
X161647238Y-73342476D01*
X161742476Y-73437714D01*
X161790095Y-73532952D01*
X161504380Y-72056761D02*
X161504380Y-72532952D01*
X161980571Y-72580571D01*
X161932952Y-72532952D01*
X161885333Y-72437714D01*
X161885333Y-72199619D01*
X161932952Y-72104380D01*
X161980571Y-72056761D01*
X162075809Y-72009142D01*
X162313904Y-72009142D01*
X162409142Y-72056761D01*
X162456761Y-72104380D01*
X162504380Y-72199619D01*
X162504380Y-72437714D01*
X162456761Y-72532952D01*
X162409142Y-72580571D01*
D13*
%TO.C,C5*%
X137882383Y-82148607D02*
X137863635Y-82167355D01*
X137807392Y-82186102D01*
X137769897Y-82186102D01*
X137713654Y-82167355D01*
X137676158Y-82129859D01*
X137657411Y-82092364D01*
X137638663Y-82017373D01*
X137638663Y-81961130D01*
X137657411Y-81886140D01*
X137676158Y-81848644D01*
X137713654Y-81811149D01*
X137769897Y-81792401D01*
X137807392Y-81792401D01*
X137863635Y-81811149D01*
X137882383Y-81829897D01*
X138238588Y-81792401D02*
X138051112Y-81792401D01*
X138032364Y-81979878D01*
X138051112Y-81961130D01*
X138088607Y-81942383D01*
X138182345Y-81942383D01*
X138219841Y-81961130D01*
X138238588Y-81979878D01*
X138257336Y-82017373D01*
X138257336Y-82111112D01*
X138238588Y-82148607D01*
X138219841Y-82167355D01*
X138182345Y-82186102D01*
X138088607Y-82186102D01*
X138051112Y-82167355D01*
X138032364Y-82148607D01*
D10*
%TO.C,Q1*%
X119097619Y-54595238D02*
X119050000Y-54690476D01*
X118954761Y-54785714D01*
X118811904Y-54928571D01*
X118764285Y-55023809D01*
X118764285Y-55119047D01*
X119002380Y-55071428D02*
X118954761Y-55166666D01*
X118859523Y-55261904D01*
X118669047Y-55309523D01*
X118335714Y-55309523D01*
X118145238Y-55261904D01*
X118050000Y-55166666D01*
X118002380Y-55071428D01*
X118002380Y-54880952D01*
X118050000Y-54785714D01*
X118145238Y-54690476D01*
X118335714Y-54642857D01*
X118669047Y-54642857D01*
X118859523Y-54690476D01*
X118954761Y-54785714D01*
X119002380Y-54880952D01*
X119002380Y-55071428D01*
X119002380Y-53690476D02*
X119002380Y-54261904D01*
X119002380Y-53976190D02*
X118002380Y-53976190D01*
X118145238Y-54071428D01*
X118240476Y-54166666D01*
X118288095Y-54261904D01*
%TO.C,CR7*%
X107065333Y-104049142D02*
X107017714Y-104096761D01*
X106874857Y-104144380D01*
X106779619Y-104144380D01*
X106636761Y-104096761D01*
X106541523Y-104001523D01*
X106493904Y-103906285D01*
X106446285Y-103715809D01*
X106446285Y-103572952D01*
X106493904Y-103382476D01*
X106541523Y-103287238D01*
X106636761Y-103192000D01*
X106779619Y-103144380D01*
X106874857Y-103144380D01*
X107017714Y-103192000D01*
X107065333Y-103239619D01*
X108065333Y-104144380D02*
X107732000Y-103668190D01*
X107493904Y-104144380D02*
X107493904Y-103144380D01*
X107874857Y-103144380D01*
X107970095Y-103192000D01*
X108017714Y-103239619D01*
X108065333Y-103334857D01*
X108065333Y-103477714D01*
X108017714Y-103572952D01*
X107970095Y-103620571D01*
X107874857Y-103668190D01*
X107493904Y-103668190D01*
X108398666Y-103144380D02*
X109065333Y-103144380D01*
X108636761Y-104144380D01*
%TO.C,J11*%
X149304476Y-87483880D02*
X149304476Y-88198166D01*
X149256857Y-88341023D01*
X149161619Y-88436261D01*
X149018761Y-88483880D01*
X148923523Y-88483880D01*
X150304476Y-88483880D02*
X149733047Y-88483880D01*
X150018761Y-88483880D02*
X150018761Y-87483880D01*
X149923523Y-87626738D01*
X149828285Y-87721976D01*
X149733047Y-87769595D01*
X151256857Y-88483880D02*
X150685428Y-88483880D01*
X150971142Y-88483880D02*
X150971142Y-87483880D01*
X150875904Y-87626738D01*
X150780666Y-87721976D01*
X150685428Y-87769595D01*
%TO.C,CR3*%
X98822133Y-68035142D02*
X98774514Y-68082761D01*
X98631657Y-68130380D01*
X98536419Y-68130380D01*
X98393561Y-68082761D01*
X98298323Y-67987523D01*
X98250704Y-67892285D01*
X98203085Y-67701809D01*
X98203085Y-67558952D01*
X98250704Y-67368476D01*
X98298323Y-67273238D01*
X98393561Y-67178000D01*
X98536419Y-67130380D01*
X98631657Y-67130380D01*
X98774514Y-67178000D01*
X98822133Y-67225619D01*
X99822133Y-68130380D02*
X99488800Y-67654190D01*
X99250704Y-68130380D02*
X99250704Y-67130380D01*
X99631657Y-67130380D01*
X99726895Y-67178000D01*
X99774514Y-67225619D01*
X99822133Y-67320857D01*
X99822133Y-67463714D01*
X99774514Y-67558952D01*
X99726895Y-67606571D01*
X99631657Y-67654190D01*
X99250704Y-67654190D01*
X100155466Y-67130380D02*
X100774514Y-67130380D01*
X100441180Y-67511333D01*
X100584038Y-67511333D01*
X100679276Y-67558952D01*
X100726895Y-67606571D01*
X100774514Y-67701809D01*
X100774514Y-67939904D01*
X100726895Y-68035142D01*
X100679276Y-68082761D01*
X100584038Y-68130380D01*
X100298323Y-68130380D01*
X100203085Y-68082761D01*
X100155466Y-68035142D01*
%TO.C,J17*%
X161758380Y-93773523D02*
X162472666Y-93773523D01*
X162615523Y-93821142D01*
X162710761Y-93916380D01*
X162758380Y-94059238D01*
X162758380Y-94154476D01*
X162758380Y-92773523D02*
X162758380Y-93344952D01*
X162758380Y-93059238D02*
X161758380Y-93059238D01*
X161901238Y-93154476D01*
X161996476Y-93249714D01*
X162044095Y-93344952D01*
X161758380Y-92440190D02*
X161758380Y-91773523D01*
X162758380Y-92202095D01*
%TO.C,J7*%
X114996666Y-93362380D02*
X114996666Y-94076666D01*
X114949047Y-94219523D01*
X114853809Y-94314761D01*
X114710952Y-94362380D01*
X114615714Y-94362380D01*
X115377619Y-93362380D02*
X116044285Y-93362380D01*
X115615714Y-94362380D01*
%TO.C,R6*%
X147583333Y-68360380D02*
X147250000Y-67884190D01*
X147011904Y-68360380D02*
X147011904Y-67360380D01*
X147392857Y-67360380D01*
X147488095Y-67408000D01*
X147535714Y-67455619D01*
X147583333Y-67550857D01*
X147583333Y-67693714D01*
X147535714Y-67788952D01*
X147488095Y-67836571D01*
X147392857Y-67884190D01*
X147011904Y-67884190D01*
X148440476Y-67360380D02*
X148250000Y-67360380D01*
X148154761Y-67408000D01*
X148107142Y-67455619D01*
X148011904Y-67598476D01*
X147964285Y-67788952D01*
X147964285Y-68169904D01*
X148011904Y-68265142D01*
X148059523Y-68312761D01*
X148154761Y-68360380D01*
X148345238Y-68360380D01*
X148440476Y-68312761D01*
X148488095Y-68265142D01*
X148535714Y-68169904D01*
X148535714Y-67931809D01*
X148488095Y-67836571D01*
X148440476Y-67788952D01*
X148345238Y-67741333D01*
X148154761Y-67741333D01*
X148059523Y-67788952D01*
X148011904Y-67836571D01*
X147964285Y-67931809D01*
%TO.C,LED2*%
X118096952Y-72838380D02*
X117620761Y-72838380D01*
X117620761Y-71838380D01*
X118430285Y-72314571D02*
X118763619Y-72314571D01*
X118906476Y-72838380D02*
X118430285Y-72838380D01*
X118430285Y-71838380D01*
X118906476Y-71838380D01*
X119335047Y-72838380D02*
X119335047Y-71838380D01*
X119573142Y-71838380D01*
X119716000Y-71886000D01*
X119811238Y-71981238D01*
X119858857Y-72076476D01*
X119906476Y-72266952D01*
X119906476Y-72409809D01*
X119858857Y-72600285D01*
X119811238Y-72695523D01*
X119716000Y-72790761D01*
X119573142Y-72838380D01*
X119335047Y-72838380D01*
X120287428Y-71933619D02*
X120335047Y-71886000D01*
X120430285Y-71838380D01*
X120668380Y-71838380D01*
X120763619Y-71886000D01*
X120811238Y-71933619D01*
X120858857Y-72028857D01*
X120858857Y-72124095D01*
X120811238Y-72266952D01*
X120239809Y-72838380D01*
X120858857Y-72838380D01*
%TO.C,R4*%
X149383333Y-46952380D02*
X149050000Y-46476190D01*
X148811904Y-46952380D02*
X148811904Y-45952380D01*
X149192857Y-45952380D01*
X149288095Y-46000000D01*
X149335714Y-46047619D01*
X149383333Y-46142857D01*
X149383333Y-46285714D01*
X149335714Y-46380952D01*
X149288095Y-46428571D01*
X149192857Y-46476190D01*
X148811904Y-46476190D01*
X150240476Y-46285714D02*
X150240476Y-46952380D01*
X150002380Y-45904761D02*
X149764285Y-46619047D01*
X150383333Y-46619047D01*
%TO.C,J12*%
X98668380Y-74201523D02*
X99382666Y-74201523D01*
X99525523Y-74249142D01*
X99620761Y-74344380D01*
X99668380Y-74487238D01*
X99668380Y-74582476D01*
X99668380Y-73201523D02*
X99668380Y-73772952D01*
X99668380Y-73487238D02*
X98668380Y-73487238D01*
X98811238Y-73582476D01*
X98906476Y-73677714D01*
X98954095Y-73772952D01*
X98763619Y-72820571D02*
X98716000Y-72772952D01*
X98668380Y-72677714D01*
X98668380Y-72439619D01*
X98716000Y-72344380D01*
X98763619Y-72296761D01*
X98858857Y-72249142D01*
X98954095Y-72249142D01*
X99096952Y-72296761D01*
X99668380Y-72868190D01*
X99668380Y-72249142D01*
%TO.C,R5*%
X115165033Y-65166380D02*
X114831700Y-64690190D01*
X114593604Y-65166380D02*
X114593604Y-64166380D01*
X114974557Y-64166380D01*
X115069795Y-64214000D01*
X115117414Y-64261619D01*
X115165033Y-64356857D01*
X115165033Y-64499714D01*
X115117414Y-64594952D01*
X115069795Y-64642571D01*
X114974557Y-64690190D01*
X114593604Y-64690190D01*
X116069795Y-64166380D02*
X115593604Y-64166380D01*
X115545985Y-64642571D01*
X115593604Y-64594952D01*
X115688842Y-64547333D01*
X115926938Y-64547333D01*
X116022176Y-64594952D01*
X116069795Y-64642571D01*
X116117414Y-64737809D01*
X116117414Y-64975904D01*
X116069795Y-65071142D01*
X116022176Y-65118761D01*
X115926938Y-65166380D01*
X115688842Y-65166380D01*
X115593604Y-65118761D01*
X115545985Y-65071142D01*
%TO.C,J1*%
X106666666Y-46302380D02*
X106666666Y-47016666D01*
X106619047Y-47159523D01*
X106523809Y-47254761D01*
X106380952Y-47302380D01*
X106285714Y-47302380D01*
X107666666Y-47302380D02*
X107095238Y-47302380D01*
X107380952Y-47302380D02*
X107380952Y-46302380D01*
X107285714Y-46445238D01*
X107190476Y-46540476D01*
X107095238Y-46588095D01*
%TO.C,LED1*%
X132494952Y-75470380D02*
X132018761Y-75470380D01*
X132018761Y-74470380D01*
X132828285Y-74946571D02*
X133161619Y-74946571D01*
X133304476Y-75470380D02*
X132828285Y-75470380D01*
X132828285Y-74470380D01*
X133304476Y-74470380D01*
X133733047Y-75470380D02*
X133733047Y-74470380D01*
X133971142Y-74470380D01*
X134114000Y-74518000D01*
X134209238Y-74613238D01*
X134256857Y-74708476D01*
X134304476Y-74898952D01*
X134304476Y-75041809D01*
X134256857Y-75232285D01*
X134209238Y-75327523D01*
X134114000Y-75422761D01*
X133971142Y-75470380D01*
X133733047Y-75470380D01*
X135256857Y-75470380D02*
X134685428Y-75470380D01*
X134971142Y-75470380D02*
X134971142Y-74470380D01*
X134875904Y-74613238D01*
X134780666Y-74708476D01*
X134685428Y-74756095D01*
%TO.C,J8*%
X114966666Y-85598380D02*
X114966666Y-86312666D01*
X114919047Y-86455523D01*
X114823809Y-86550761D01*
X114680952Y-86598380D01*
X114585714Y-86598380D01*
X115585714Y-86026952D02*
X115490476Y-85979333D01*
X115442857Y-85931714D01*
X115395238Y-85836476D01*
X115395238Y-85788857D01*
X115442857Y-85693619D01*
X115490476Y-85646000D01*
X115585714Y-85598380D01*
X115776190Y-85598380D01*
X115871428Y-85646000D01*
X115919047Y-85693619D01*
X115966666Y-85788857D01*
X115966666Y-85836476D01*
X115919047Y-85931714D01*
X115871428Y-85979333D01*
X115776190Y-86026952D01*
X115585714Y-86026952D01*
X115490476Y-86074571D01*
X115442857Y-86122190D01*
X115395238Y-86217428D01*
X115395238Y-86407904D01*
X115442857Y-86503142D01*
X115490476Y-86550761D01*
X115585714Y-86598380D01*
X115776190Y-86598380D01*
X115871428Y-86550761D01*
X115919047Y-86503142D01*
X115966666Y-86407904D01*
X115966666Y-86217428D01*
X115919047Y-86122190D01*
X115871428Y-86074571D01*
X115776190Y-86026952D01*
%TO.C,CR1*%
X99161333Y-63009142D02*
X99113714Y-63056761D01*
X98970857Y-63104380D01*
X98875619Y-63104380D01*
X98732761Y-63056761D01*
X98637523Y-62961523D01*
X98589904Y-62866285D01*
X98542285Y-62675809D01*
X98542285Y-62532952D01*
X98589904Y-62342476D01*
X98637523Y-62247238D01*
X98732761Y-62152000D01*
X98875619Y-62104380D01*
X98970857Y-62104380D01*
X99113714Y-62152000D01*
X99161333Y-62199619D01*
X100161333Y-63104380D02*
X99828000Y-62628190D01*
X99589904Y-63104380D02*
X99589904Y-62104380D01*
X99970857Y-62104380D01*
X100066095Y-62152000D01*
X100113714Y-62199619D01*
X100161333Y-62294857D01*
X100161333Y-62437714D01*
X100113714Y-62532952D01*
X100066095Y-62580571D01*
X99970857Y-62628190D01*
X99589904Y-62628190D01*
X101113714Y-63104380D02*
X100542285Y-63104380D01*
X100828000Y-63104380D02*
X100828000Y-62104380D01*
X100732761Y-62247238D01*
X100637523Y-62342476D01*
X100542285Y-62390095D01*
%TO.C,U2*%
X126270380Y-86511904D02*
X127079904Y-86511904D01*
X127175142Y-86464285D01*
X127222761Y-86416666D01*
X127270380Y-86321428D01*
X127270380Y-86130952D01*
X127222761Y-86035714D01*
X127175142Y-85988095D01*
X127079904Y-85940476D01*
X126270380Y-85940476D01*
X126365619Y-85511904D02*
X126318000Y-85464285D01*
X126270380Y-85369047D01*
X126270380Y-85130952D01*
X126318000Y-85035714D01*
X126365619Y-84988095D01*
X126460857Y-84940476D01*
X126556095Y-84940476D01*
X126698952Y-84988095D01*
X127270380Y-85559523D01*
X127270380Y-84940476D01*
%TO.C,J3*%
X110052380Y-49933333D02*
X110766666Y-49933333D01*
X110909523Y-49980952D01*
X111004761Y-50076190D01*
X111052380Y-50219047D01*
X111052380Y-50314285D01*
X110052380Y-49552380D02*
X110052380Y-48933333D01*
X110433333Y-49266666D01*
X110433333Y-49123809D01*
X110480952Y-49028571D01*
X110528571Y-48980952D01*
X110623809Y-48933333D01*
X110861904Y-48933333D01*
X110957142Y-48980952D01*
X111004761Y-49028571D01*
X111052380Y-49123809D01*
X111052380Y-49409523D01*
X111004761Y-49504761D01*
X110957142Y-49552380D01*
%TO.C,D1*%
X108575777Y-72729684D02*
X108575777Y-71726802D01*
X108814559Y-71726802D01*
X108957827Y-71774559D01*
X109053340Y-71870071D01*
X109101096Y-71965584D01*
X109148853Y-72156609D01*
X109148853Y-72299878D01*
X109101096Y-72490903D01*
X109053340Y-72586415D01*
X108957827Y-72681928D01*
X108814559Y-72729684D01*
X108575777Y-72729684D01*
X110103978Y-72729684D02*
X109530903Y-72729684D01*
X109817441Y-72729684D02*
X109817441Y-71726802D01*
X109721928Y-71870071D01*
X109626415Y-71965584D01*
X109530903Y-72013340D01*
%TO.C,R8*%
X139505033Y-66802380D02*
X139171700Y-66326190D01*
X138933604Y-66802380D02*
X138933604Y-65802380D01*
X139314557Y-65802380D01*
X139409795Y-65850000D01*
X139457414Y-65897619D01*
X139505033Y-65992857D01*
X139505033Y-66135714D01*
X139457414Y-66230952D01*
X139409795Y-66278571D01*
X139314557Y-66326190D01*
X138933604Y-66326190D01*
X140076461Y-66230952D02*
X139981223Y-66183333D01*
X139933604Y-66135714D01*
X139885985Y-66040476D01*
X139885985Y-65992857D01*
X139933604Y-65897619D01*
X139981223Y-65850000D01*
X140076461Y-65802380D01*
X140266938Y-65802380D01*
X140362176Y-65850000D01*
X140409795Y-65897619D01*
X140457414Y-65992857D01*
X140457414Y-66040476D01*
X140409795Y-66135714D01*
X140362176Y-66183333D01*
X140266938Y-66230952D01*
X140076461Y-66230952D01*
X139981223Y-66278571D01*
X139933604Y-66326190D01*
X139885985Y-66421428D01*
X139885985Y-66611904D01*
X139933604Y-66707142D01*
X139981223Y-66754761D01*
X140076461Y-66802380D01*
X140266938Y-66802380D01*
X140362176Y-66754761D01*
X140409795Y-66707142D01*
X140457414Y-66611904D01*
X140457414Y-66421428D01*
X140409795Y-66326190D01*
X140362176Y-66278571D01*
X140266938Y-66230952D01*
%TO.C,J5*%
X120062666Y-95972380D02*
X120062666Y-96686666D01*
X120015047Y-96829523D01*
X119919809Y-96924761D01*
X119776952Y-96972380D01*
X119681714Y-96972380D01*
X121015047Y-95972380D02*
X120538857Y-95972380D01*
X120491238Y-96448571D01*
X120538857Y-96400952D01*
X120634095Y-96353333D01*
X120872190Y-96353333D01*
X120967428Y-96400952D01*
X121015047Y-96448571D01*
X121062666Y-96543809D01*
X121062666Y-96781904D01*
X121015047Y-96877142D01*
X120967428Y-96924761D01*
X120872190Y-96972380D01*
X120634095Y-96972380D01*
X120538857Y-96924761D01*
X120491238Y-96877142D01*
%TO.C,J6*%
X114886666Y-77340380D02*
X114886666Y-78054666D01*
X114839047Y-78197523D01*
X114743809Y-78292761D01*
X114600952Y-78340380D01*
X114505714Y-78340380D01*
X115791428Y-77340380D02*
X115600952Y-77340380D01*
X115505714Y-77388000D01*
X115458095Y-77435619D01*
X115362857Y-77578476D01*
X115315238Y-77768952D01*
X115315238Y-78149904D01*
X115362857Y-78245142D01*
X115410476Y-78292761D01*
X115505714Y-78340380D01*
X115696190Y-78340380D01*
X115791428Y-78292761D01*
X115839047Y-78245142D01*
X115886666Y-78149904D01*
X115886666Y-77911809D01*
X115839047Y-77816571D01*
X115791428Y-77768952D01*
X115696190Y-77721333D01*
X115505714Y-77721333D01*
X115410476Y-77768952D01*
X115362857Y-77816571D01*
X115315238Y-77911809D01*
%TO.C,CR5*%
X107035333Y-99611142D02*
X106987714Y-99658761D01*
X106844857Y-99706380D01*
X106749619Y-99706380D01*
X106606761Y-99658761D01*
X106511523Y-99563523D01*
X106463904Y-99468285D01*
X106416285Y-99277809D01*
X106416285Y-99134952D01*
X106463904Y-98944476D01*
X106511523Y-98849238D01*
X106606761Y-98754000D01*
X106749619Y-98706380D01*
X106844857Y-98706380D01*
X106987714Y-98754000D01*
X107035333Y-98801619D01*
X108035333Y-99706380D02*
X107702000Y-99230190D01*
X107463904Y-99706380D02*
X107463904Y-98706380D01*
X107844857Y-98706380D01*
X107940095Y-98754000D01*
X107987714Y-98801619D01*
X108035333Y-98896857D01*
X108035333Y-99039714D01*
X107987714Y-99134952D01*
X107940095Y-99182571D01*
X107844857Y-99230190D01*
X107463904Y-99230190D01*
X108940095Y-98706380D02*
X108463904Y-98706380D01*
X108416285Y-99182571D01*
X108463904Y-99134952D01*
X108559142Y-99087333D01*
X108797238Y-99087333D01*
X108892476Y-99134952D01*
X108940095Y-99182571D01*
X108987714Y-99277809D01*
X108987714Y-99515904D01*
X108940095Y-99611142D01*
X108892476Y-99658761D01*
X108797238Y-99706380D01*
X108559142Y-99706380D01*
X108463904Y-99658761D01*
X108416285Y-99611142D01*
%TO.C,R3*%
X115583333Y-47552380D02*
X115250000Y-47076190D01*
X115011904Y-47552380D02*
X115011904Y-46552380D01*
X115392857Y-46552380D01*
X115488095Y-46600000D01*
X115535714Y-46647619D01*
X115583333Y-46742857D01*
X115583333Y-46885714D01*
X115535714Y-46980952D01*
X115488095Y-47028571D01*
X115392857Y-47076190D01*
X115011904Y-47076190D01*
X115916666Y-46552380D02*
X116535714Y-46552380D01*
X116202380Y-46933333D01*
X116345238Y-46933333D01*
X116440476Y-46980952D01*
X116488095Y-47028571D01*
X116535714Y-47123809D01*
X116535714Y-47361904D01*
X116488095Y-47457142D01*
X116440476Y-47504761D01*
X116345238Y-47552380D01*
X116059523Y-47552380D01*
X115964285Y-47504761D01*
X115916666Y-47457142D01*
%TO.C,R7*%
X110289333Y-65216380D02*
X109956000Y-64740190D01*
X109717904Y-65216380D02*
X109717904Y-64216380D01*
X110098857Y-64216380D01*
X110194095Y-64264000D01*
X110241714Y-64311619D01*
X110289333Y-64406857D01*
X110289333Y-64549714D01*
X110241714Y-64644952D01*
X110194095Y-64692571D01*
X110098857Y-64740190D01*
X109717904Y-64740190D01*
X110622666Y-64216380D02*
X111289333Y-64216380D01*
X110860761Y-65216380D01*
%TO.C,CR8*%
X151499333Y-101419142D02*
X151451714Y-101466761D01*
X151308857Y-101514380D01*
X151213619Y-101514380D01*
X151070761Y-101466761D01*
X150975523Y-101371523D01*
X150927904Y-101276285D01*
X150880285Y-101085809D01*
X150880285Y-100942952D01*
X150927904Y-100752476D01*
X150975523Y-100657238D01*
X151070761Y-100562000D01*
X151213619Y-100514380D01*
X151308857Y-100514380D01*
X151451714Y-100562000D01*
X151499333Y-100609619D01*
X152499333Y-101514380D02*
X152166000Y-101038190D01*
X151927904Y-101514380D02*
X151927904Y-100514380D01*
X152308857Y-100514380D01*
X152404095Y-100562000D01*
X152451714Y-100609619D01*
X152499333Y-100704857D01*
X152499333Y-100847714D01*
X152451714Y-100942952D01*
X152404095Y-100990571D01*
X152308857Y-101038190D01*
X151927904Y-101038190D01*
X153070761Y-100942952D02*
X152975523Y-100895333D01*
X152927904Y-100847714D01*
X152880285Y-100752476D01*
X152880285Y-100704857D01*
X152927904Y-100609619D01*
X152975523Y-100562000D01*
X153070761Y-100514380D01*
X153261238Y-100514380D01*
X153356476Y-100562000D01*
X153404095Y-100609619D01*
X153451714Y-100704857D01*
X153451714Y-100752476D01*
X153404095Y-100847714D01*
X153356476Y-100895333D01*
X153261238Y-100942952D01*
X153070761Y-100942952D01*
X152975523Y-100990571D01*
X152927904Y-101038190D01*
X152880285Y-101133428D01*
X152880285Y-101323904D01*
X152927904Y-101419142D01*
X152975523Y-101466761D01*
X153070761Y-101514380D01*
X153261238Y-101514380D01*
X153356476Y-101466761D01*
X153404095Y-101419142D01*
X153451714Y-101323904D01*
X153451714Y-101133428D01*
X153404095Y-101038190D01*
X153356476Y-100990571D01*
X153261238Y-100942952D01*
%TO.C,J16*%
X161504380Y-83867523D02*
X162218666Y-83867523D01*
X162361523Y-83915142D01*
X162456761Y-84010380D01*
X162504380Y-84153238D01*
X162504380Y-84248476D01*
X162504380Y-82867523D02*
X162504380Y-83438952D01*
X162504380Y-83153238D02*
X161504380Y-83153238D01*
X161647238Y-83248476D01*
X161742476Y-83343714D01*
X161790095Y-83438952D01*
X161504380Y-82010380D02*
X161504380Y-82200857D01*
X161552000Y-82296095D01*
X161599619Y-82343714D01*
X161742476Y-82438952D01*
X161932952Y-82486571D01*
X162313904Y-82486571D01*
X162409142Y-82438952D01*
X162456761Y-82391333D01*
X162504380Y-82296095D01*
X162504380Y-82105619D01*
X162456761Y-82010380D01*
X162409142Y-81962761D01*
X162313904Y-81915142D01*
X162075809Y-81915142D01*
X161980571Y-81962761D01*
X161932952Y-82010380D01*
X161885333Y-82105619D01*
X161885333Y-82296095D01*
X161932952Y-82391333D01*
X161980571Y-82438952D01*
X162075809Y-82486571D01*
D13*
%TO.C,R1*%
X117086383Y-59902102D02*
X116955149Y-59714626D01*
X116861411Y-59902102D02*
X116861411Y-59508401D01*
X117011392Y-59508401D01*
X117048887Y-59527149D01*
X117067635Y-59545897D01*
X117086383Y-59583392D01*
X117086383Y-59639635D01*
X117067635Y-59677130D01*
X117048887Y-59695878D01*
X117011392Y-59714626D01*
X116861411Y-59714626D01*
X117461336Y-59902102D02*
X117236364Y-59902102D01*
X117348850Y-59902102D02*
X117348850Y-59508401D01*
X117311355Y-59564644D01*
X117273859Y-59602140D01*
X117236364Y-59620887D01*
D10*
%TO.C,J9*%
X151050666Y-77684380D02*
X151050666Y-78398666D01*
X151003047Y-78541523D01*
X150907809Y-78636761D01*
X150764952Y-78684380D01*
X150669714Y-78684380D01*
X151574476Y-78684380D02*
X151764952Y-78684380D01*
X151860190Y-78636761D01*
X151907809Y-78589142D01*
X152003047Y-78446285D01*
X152050666Y-78255809D01*
X152050666Y-77874857D01*
X152003047Y-77779619D01*
X151955428Y-77732000D01*
X151860190Y-77684380D01*
X151669714Y-77684380D01*
X151574476Y-77732000D01*
X151526857Y-77779619D01*
X151479238Y-77874857D01*
X151479238Y-78112952D01*
X151526857Y-78208190D01*
X151574476Y-78255809D01*
X151669714Y-78303428D01*
X151860190Y-78303428D01*
X151955428Y-78255809D01*
X152003047Y-78208190D01*
X152050666Y-78112952D01*
D13*
%TO.C,C4*%
X137900383Y-87228607D02*
X137881635Y-87247355D01*
X137825392Y-87266102D01*
X137787897Y-87266102D01*
X137731654Y-87247355D01*
X137694158Y-87209859D01*
X137675411Y-87172364D01*
X137656663Y-87097373D01*
X137656663Y-87041130D01*
X137675411Y-86966140D01*
X137694158Y-86928644D01*
X137731654Y-86891149D01*
X137787897Y-86872401D01*
X137825392Y-86872401D01*
X137881635Y-86891149D01*
X137900383Y-86909897D01*
X138237841Y-87003635D02*
X138237841Y-87266102D01*
X138144102Y-86853654D02*
X138050364Y-87134869D01*
X138294084Y-87134869D01*
D14*
%TO.C,R2*%
X133288676Y-73594162D02*
X133150030Y-73396096D01*
X133050997Y-73594162D02*
X133050997Y-73178223D01*
X133209450Y-73178223D01*
X133249063Y-73198030D01*
X133268870Y-73217837D01*
X133288676Y-73257450D01*
X133288676Y-73316870D01*
X133268870Y-73356483D01*
X133249063Y-73376290D01*
X133209450Y-73396096D01*
X133050997Y-73396096D01*
X133447129Y-73217837D02*
X133466936Y-73198030D01*
X133506549Y-73178223D01*
X133605582Y-73178223D01*
X133645195Y-73198030D01*
X133665002Y-73217837D01*
X133684809Y-73257450D01*
X133684809Y-73297063D01*
X133665002Y-73356483D01*
X133427323Y-73594162D01*
X133684809Y-73594162D01*
D10*
%TO.C,J2*%
X137566666Y-45852380D02*
X137566666Y-46566666D01*
X137519047Y-46709523D01*
X137423809Y-46804761D01*
X137280952Y-46852380D01*
X137185714Y-46852380D01*
X137995238Y-45947619D02*
X138042857Y-45900000D01*
X138138095Y-45852380D01*
X138376190Y-45852380D01*
X138471428Y-45900000D01*
X138519047Y-45947619D01*
X138566666Y-46042857D01*
X138566666Y-46138095D01*
X138519047Y-46280952D01*
X137947619Y-46852380D01*
X138566666Y-46852380D01*
%TO.C,J14*%
X98592380Y-83031523D02*
X99306666Y-83031523D01*
X99449523Y-83079142D01*
X99544761Y-83174380D01*
X99592380Y-83317238D01*
X99592380Y-83412476D01*
X99592380Y-82031523D02*
X99592380Y-82602952D01*
X99592380Y-82317238D02*
X98592380Y-82317238D01*
X98735238Y-82412476D01*
X98830476Y-82507714D01*
X98878095Y-82602952D01*
X98925714Y-81174380D02*
X99592380Y-81174380D01*
X98544761Y-81412476D02*
X99259047Y-81650571D01*
X99259047Y-81031523D01*
%TO.C,CR6*%
X151519333Y-105065142D02*
X151471714Y-105112761D01*
X151328857Y-105160380D01*
X151233619Y-105160380D01*
X151090761Y-105112761D01*
X150995523Y-105017523D01*
X150947904Y-104922285D01*
X150900285Y-104731809D01*
X150900285Y-104588952D01*
X150947904Y-104398476D01*
X150995523Y-104303238D01*
X151090761Y-104208000D01*
X151233619Y-104160380D01*
X151328857Y-104160380D01*
X151471714Y-104208000D01*
X151519333Y-104255619D01*
X152519333Y-105160380D02*
X152186000Y-104684190D01*
X151947904Y-105160380D02*
X151947904Y-104160380D01*
X152328857Y-104160380D01*
X152424095Y-104208000D01*
X152471714Y-104255619D01*
X152519333Y-104350857D01*
X152519333Y-104493714D01*
X152471714Y-104588952D01*
X152424095Y-104636571D01*
X152328857Y-104684190D01*
X151947904Y-104684190D01*
X153376476Y-104160380D02*
X153186000Y-104160380D01*
X153090761Y-104208000D01*
X153043142Y-104255619D01*
X152947904Y-104398476D01*
X152900285Y-104588952D01*
X152900285Y-104969904D01*
X152947904Y-105065142D01*
X152995523Y-105112761D01*
X153090761Y-105160380D01*
X153281238Y-105160380D01*
X153376476Y-105112761D01*
X153424095Y-105065142D01*
X153471714Y-104969904D01*
X153471714Y-104731809D01*
X153424095Y-104636571D01*
X153376476Y-104588952D01*
X153281238Y-104541333D01*
X153090761Y-104541333D01*
X152995523Y-104588952D01*
X152947904Y-104636571D01*
X152900285Y-104731809D01*
%TO.C,CR2*%
X158719333Y-66743142D02*
X158671714Y-66790761D01*
X158528857Y-66838380D01*
X158433619Y-66838380D01*
X158290761Y-66790761D01*
X158195523Y-66695523D01*
X158147904Y-66600285D01*
X158100285Y-66409809D01*
X158100285Y-66266952D01*
X158147904Y-66076476D01*
X158195523Y-65981238D01*
X158290761Y-65886000D01*
X158433619Y-65838380D01*
X158528857Y-65838380D01*
X158671714Y-65886000D01*
X158719333Y-65933619D01*
X159719333Y-66838380D02*
X159386000Y-66362190D01*
X159147904Y-66838380D02*
X159147904Y-65838380D01*
X159528857Y-65838380D01*
X159624095Y-65886000D01*
X159671714Y-65933619D01*
X159719333Y-66028857D01*
X159719333Y-66171714D01*
X159671714Y-66266952D01*
X159624095Y-66314571D01*
X159528857Y-66362190D01*
X159147904Y-66362190D01*
X160100285Y-65933619D02*
X160147904Y-65886000D01*
X160243142Y-65838380D01*
X160481238Y-65838380D01*
X160576476Y-65886000D01*
X160624095Y-65933619D01*
X160671714Y-66028857D01*
X160671714Y-66124095D01*
X160624095Y-66266952D01*
X160052666Y-66838380D01*
X160671714Y-66838380D01*
D15*
%TO.C,J4*%
X137965000Y-97734999D02*
X127211001Y-97734999D01*
X127211001Y-97734999D02*
X127211001Y-105538999D01*
X127211001Y-105538999D02*
X137965000Y-105538999D01*
X137965000Y-105538999D02*
X137965000Y-97734999D01*
X138981000Y-102362000D02*
G75*
G03*
X138981000Y-102362000I-381000J0D01*
G01*
D16*
%TO.C,D2*%
X139785000Y-72332000D02*
X139615000Y-72332000D01*
X139615000Y-71432000D02*
X139785000Y-71432000D01*
D17*
X137800000Y-71882000D02*
G75*
G03*
X137800000Y-71882000I-100000J0D01*
G01*
D15*
%TO.C,CR4*%
X153319400Y-63633350D02*
X154081400Y-63506350D01*
X153319400Y-62998350D02*
X153319400Y-64268350D01*
X158602600Y-62919610D02*
X158602600Y-62655450D01*
X153319400Y-63633350D02*
X154081400Y-63379350D01*
X153319400Y-63633350D02*
X154081400Y-63760350D01*
X153319400Y-63633350D02*
X154081400Y-63125350D01*
X155656200Y-64611250D02*
X158602600Y-64611250D01*
X155656200Y-64347090D02*
X155656200Y-64611250D01*
X153319400Y-63633350D02*
X154081400Y-64268350D01*
X154081400Y-62998350D02*
X154081400Y-64268350D01*
X153319400Y-63633350D02*
X154081400Y-64141350D01*
X154335400Y-63633350D02*
X153065400Y-63633350D01*
X158602600Y-64611250D02*
X158602600Y-64347090D01*
X155656200Y-62655450D02*
X155656200Y-62919610D01*
X153319400Y-63633350D02*
X154081400Y-64014350D01*
X153319400Y-63633350D02*
X154081400Y-63252350D01*
X153319400Y-63633350D02*
X154081400Y-62998350D01*
X158602600Y-62655450D02*
X155656200Y-62655450D01*
X153319400Y-63633350D02*
X154081400Y-63887350D01*
%TO.C,C1*%
X121434100Y-73660000D02*
X122704100Y-73660000D01*
X122069100Y-73025000D02*
X122069100Y-74295000D01*
X128596900Y-73660000D02*
G75*
G03*
X128596900Y-73660000I-2882900J0D01*
G01*
%TO.C,LED3*%
X144667553Y-72923400D02*
X144892447Y-72923400D01*
X144892447Y-71856600D02*
X144667553Y-71856600D01*
%TO.C,J10*%
X145669000Y-96647000D02*
X151003000Y-96647000D01*
X151003000Y-93853000D02*
X145669000Y-93853000D01*
X145669000Y-93853000D02*
X145669000Y-96647000D01*
X151003000Y-96647000D02*
X151003000Y-93853000D01*
X144272000Y-95250000D02*
G75*
G03*
X144272000Y-95250000I-381000J0D01*
G01*
%TO.C,J13*%
X107404500Y-95734000D02*
X107404500Y-89940000D01*
X100950500Y-89940000D02*
X100950500Y-90666247D01*
X100950500Y-95734000D02*
X107404500Y-95734000D01*
X100950500Y-95007753D02*
X100950500Y-95734000D01*
X100950500Y-92467753D02*
X100950500Y-93206247D01*
X107404500Y-89940000D02*
X100950500Y-89940000D01*
X104558501Y-88162000D02*
G75*
G03*
X104558501Y-88162000I-381000J0D01*
G01*
%TO.C,U1*%
X133130000Y-53930000D02*
X133130000Y-55770000D01*
X129431000Y-53930000D02*
X129431000Y-55770000D01*
X137630000Y-59171000D02*
X137630000Y-62565000D01*
X121060000Y-53930000D02*
X121060000Y-59171000D01*
X124585000Y-59171000D02*
X125276000Y-59171000D01*
X140170000Y-59171000D02*
X140170000Y-62565000D01*
X135090000Y-59171000D02*
X135090000Y-62565000D01*
X141500000Y-53930000D02*
X141500000Y-59171000D01*
X134745000Y-59171000D02*
X135436000Y-59171000D01*
X127470000Y-59171000D02*
X127470000Y-62565000D01*
X124930000Y-59171000D02*
X124930000Y-62565000D01*
X122390000Y-59171000D02*
X122390000Y-62580000D01*
X132550000Y-59171000D02*
X132550000Y-62565000D01*
X121060000Y-55770000D02*
X141500000Y-55770000D01*
X127125000Y-59171000D02*
X127816000Y-59171000D01*
X139825000Y-59171000D02*
X141500000Y-59171000D01*
X129665000Y-59171000D02*
X130356000Y-59171000D01*
X137285000Y-59171000D02*
X137976000Y-59171000D01*
X121060000Y-53930000D02*
X141500000Y-53930000D01*
X121060000Y-59171000D02*
X122736000Y-59171000D01*
X130010000Y-59171000D02*
X130010000Y-62565000D01*
X132205000Y-59171000D02*
X132896000Y-59171000D01*
%TO.C,J15*%
X160199001Y-71525000D02*
X153745001Y-71525000D01*
X153745001Y-77319000D02*
X160199001Y-77319000D01*
X160199001Y-72251247D02*
X160199001Y-71525000D01*
X160199001Y-74791247D02*
X160199001Y-74052753D01*
X153745001Y-71525000D02*
X153745001Y-77319000D01*
X160199001Y-77319000D02*
X160199001Y-76592753D01*
X157353000Y-79097000D02*
G75*
G03*
X157353000Y-79097000I-381000J0D01*
G01*
%TO.C,Q1*%
X117384000Y-54610000D02*
X117384000Y-55260000D01*
X114264000Y-54610000D02*
X114264000Y-53960000D01*
X114264000Y-54610000D02*
X114264000Y-56285000D01*
X117384000Y-54610000D02*
X117384000Y-53960000D01*
%TO.C,CR7*%
X105105200Y-102918260D02*
X105105200Y-102654100D01*
X99822000Y-103632000D02*
X100584000Y-104140000D01*
X99822000Y-103632000D02*
X100584000Y-103251000D01*
X99822000Y-103632000D02*
X100584000Y-104013000D01*
X99822000Y-103632000D02*
X100584000Y-103886000D01*
X105105200Y-102654100D02*
X102158800Y-102654100D01*
X105105200Y-104609900D02*
X105105200Y-104345740D01*
X99822000Y-103632000D02*
X100584000Y-103124000D01*
X100584000Y-102997000D02*
X100584000Y-104267000D01*
X99822000Y-103632000D02*
X100584000Y-103759000D01*
X102158800Y-104609900D02*
X105105200Y-104609900D01*
X100838000Y-103632000D02*
X99568000Y-103632000D01*
X99822000Y-103632000D02*
X100584000Y-102997000D01*
X99822000Y-103632000D02*
X100584000Y-104267000D01*
X102158800Y-102654100D02*
X102158800Y-102918260D01*
X99822000Y-103632000D02*
X100584000Y-103505000D01*
X99822000Y-102997000D02*
X99822000Y-104267000D01*
X99822000Y-103632000D02*
X100584000Y-103378000D01*
X102158800Y-104345740D02*
X102158800Y-104609900D01*
%TO.C,J11*%
X151003000Y-86995000D02*
X151003000Y-84201000D01*
X145669000Y-84201000D02*
X145669000Y-86995000D01*
X151003000Y-84201000D02*
X145669000Y-84201000D01*
X145669000Y-86995000D02*
X151003000Y-86995000D01*
X144272000Y-85598000D02*
G75*
G03*
X144272000Y-85598000I-381000J0D01*
G01*
%TO.C,CR3*%
X101955600Y-69801740D02*
X101955600Y-70065900D01*
X101955600Y-70065900D02*
X104902000Y-70065900D01*
X99618800Y-69088000D02*
X100380800Y-69723000D01*
X100634800Y-69088000D02*
X99364800Y-69088000D01*
X99618800Y-69088000D02*
X100380800Y-68580000D01*
X104902000Y-68110100D02*
X101955600Y-68110100D01*
X99618800Y-69088000D02*
X100380800Y-68707000D01*
X99618800Y-68453000D02*
X99618800Y-69723000D01*
X104902000Y-70065900D02*
X104902000Y-69801740D01*
X99618800Y-69088000D02*
X100380800Y-69215000D01*
X104902000Y-68374260D02*
X104902000Y-68110100D01*
X99618800Y-69088000D02*
X100380800Y-68834000D01*
X99618800Y-69088000D02*
X100380800Y-69596000D01*
X99618800Y-69088000D02*
X100380800Y-68453000D01*
X99618800Y-69088000D02*
X100380800Y-69342000D01*
X99618800Y-69088000D02*
X100380800Y-69469000D01*
X99618800Y-69088000D02*
X100380800Y-68961000D01*
X100380800Y-68453000D02*
X100380800Y-69723000D01*
X101955600Y-68110100D02*
X101955600Y-68374260D01*
%TO.C,J17*%
X160453001Y-92063247D02*
X160453001Y-91337000D01*
X160453001Y-94603247D02*
X160453001Y-93864753D01*
X153999001Y-91337000D02*
X153999001Y-97131000D01*
X160453001Y-97131000D02*
X160453001Y-96404753D01*
X153999001Y-97131000D02*
X160453001Y-97131000D01*
X160453001Y-91337000D02*
X153999001Y-91337000D01*
X157607000Y-98909000D02*
G75*
G03*
X157607000Y-98909000I-381000J0D01*
G01*
%TO.C,J7*%
X115697000Y-90043000D02*
X110363000Y-90043000D01*
X110363000Y-92837000D02*
X115697000Y-92837000D01*
X110363000Y-90043000D02*
X110363000Y-92837000D01*
X115697000Y-92837000D02*
X115697000Y-90043000D01*
X108966000Y-91440000D02*
G75*
G03*
X108966000Y-91440000I-381000J0D01*
G01*
%TO.C,R6*%
X144862503Y-67195700D02*
X144697497Y-67195700D01*
X144697497Y-68440300D02*
X144862503Y-68440300D01*
%TO.C,LED2*%
X116698447Y-70332600D02*
X116473553Y-70332600D01*
X116473553Y-71399400D02*
X116698447Y-71399400D01*
D16*
%TO.C,R4*%
X147800000Y-47300000D02*
X147800000Y-45600000D01*
X144500000Y-47300000D02*
X144500000Y-45600000D01*
D15*
%TO.C,J12*%
X100658999Y-75322753D02*
X100658999Y-76061247D01*
X107112999Y-72795000D02*
X100658999Y-72795000D01*
X100658999Y-77862753D02*
X100658999Y-78589000D01*
X107112999Y-78589000D02*
X107112999Y-72795000D01*
X100658999Y-72795000D02*
X100658999Y-73521247D01*
X100658999Y-78589000D02*
X107112999Y-78589000D01*
X104267000Y-71017000D02*
G75*
G03*
X104267000Y-71017000I-381000J0D01*
G01*
%TO.C,R5*%
X116389197Y-66916300D02*
X116554203Y-66916300D01*
X116554203Y-65671700D02*
X116389197Y-65671700D01*
D17*
%TO.C,J1*%
X109025000Y-48056500D02*
X109025000Y-45643500D01*
X112075000Y-48056500D02*
X109025000Y-48056500D01*
X112075000Y-45643500D02*
X112075000Y-48056500D01*
X112075000Y-45643500D02*
X109025000Y-45643500D01*
X108475000Y-46850000D02*
G75*
G03*
X108475000Y-46850000I-100000J0D01*
G01*
D15*
%TO.C,LED1*%
X133716447Y-76174600D02*
X133491553Y-76174600D01*
X133491553Y-77241400D02*
X133716447Y-77241400D01*
%TO.C,J8*%
X115697000Y-84963000D02*
X115697000Y-82169000D01*
X115697000Y-82169000D02*
X110363000Y-82169000D01*
X110363000Y-82169000D02*
X110363000Y-84963000D01*
X110363000Y-84963000D02*
X115697000Y-84963000D01*
X108966000Y-83566000D02*
G75*
G03*
X108966000Y-83566000I-381000J0D01*
G01*
%TO.C,CR1*%
X99568000Y-64262000D02*
X100330000Y-64135000D01*
X100330000Y-63627000D02*
X100330000Y-64897000D01*
X101904800Y-63284100D02*
X101904800Y-63548260D01*
X104851200Y-63548260D02*
X104851200Y-63284100D01*
X99568000Y-63627000D02*
X99568000Y-64897000D01*
X100584000Y-64262000D02*
X99314000Y-64262000D01*
X99568000Y-64262000D02*
X100330000Y-64770000D01*
X99568000Y-64262000D02*
X100330000Y-63627000D01*
X101904800Y-64975740D02*
X101904800Y-65239900D01*
X99568000Y-64262000D02*
X100330000Y-64516000D01*
X99568000Y-64262000D02*
X100330000Y-64643000D01*
X99568000Y-64262000D02*
X100330000Y-64897000D01*
X99568000Y-64262000D02*
X100330000Y-63881000D01*
X99568000Y-64262000D02*
X100330000Y-64389000D01*
X104851200Y-65239900D02*
X104851200Y-64975740D01*
X99568000Y-64262000D02*
X100330000Y-64008000D01*
X99568000Y-64262000D02*
X100330000Y-63754000D01*
X101904800Y-65239900D02*
X104851200Y-65239900D01*
X104851200Y-63284100D02*
X101904800Y-63284100D01*
%TO.C,U2*%
X127908000Y-89850000D02*
X127908000Y-83840000D01*
X127908000Y-83840000D02*
X129168000Y-83840000D01*
X134728000Y-83840000D02*
X133468000Y-83840000D01*
X134728000Y-87600000D02*
X134728000Y-83840000D01*
%TO.C,J3*%
X112141000Y-50927000D02*
X109347000Y-50927000D01*
X109347000Y-50927000D02*
X109347000Y-56261000D01*
X112141000Y-56261000D02*
X112141000Y-50927000D01*
X109347000Y-56261000D02*
X112141000Y-56261000D01*
X111125000Y-58039000D02*
G75*
G03*
X111125000Y-58039000I-381000J0D01*
G01*
D16*
%TO.C,D1*%
X111421000Y-70416000D02*
X111591000Y-70416000D01*
X111591000Y-71316000D02*
X111421000Y-71316000D01*
D17*
X109606000Y-70866000D02*
G75*
G03*
X109606000Y-70866000I-100000J0D01*
G01*
D15*
%TO.C,R8*%
X139619197Y-68422300D02*
X139784203Y-68422300D01*
X139784203Y-67177700D02*
X139619197Y-67177700D01*
%TO.C,J5*%
X120015000Y-97663000D02*
X120015000Y-100457000D01*
X120015000Y-100457000D02*
X125349000Y-100457000D01*
X125349000Y-97663000D02*
X120015000Y-97663000D01*
X125349000Y-100457000D02*
X125349000Y-97663000D01*
X126593000Y-99070000D02*
G75*
G03*
X126593000Y-99070000I-381000J0D01*
G01*
%TO.C,J6*%
X115697000Y-74041000D02*
X110363000Y-74041000D01*
X110363000Y-76835000D02*
X115697000Y-76835000D01*
X115697000Y-76835000D02*
X115697000Y-74041000D01*
X110363000Y-74041000D02*
X110363000Y-76835000D01*
X108966000Y-75438000D02*
G75*
G03*
X108966000Y-75438000I-381000J0D01*
G01*
%TO.C,CR5*%
X99822000Y-99314000D02*
X100584000Y-99060000D01*
X99822000Y-98679000D02*
X99822000Y-99949000D01*
X99822000Y-99314000D02*
X100584000Y-98933000D01*
X99822000Y-99314000D02*
X100584000Y-99568000D01*
X99822000Y-99314000D02*
X100584000Y-99822000D01*
X105105200Y-98600260D02*
X105105200Y-98336100D01*
X99822000Y-99314000D02*
X100584000Y-99441000D01*
X105105200Y-98336100D02*
X102158800Y-98336100D01*
X100838000Y-99314000D02*
X99568000Y-99314000D01*
X99822000Y-99314000D02*
X100584000Y-99187000D01*
X102158800Y-100291900D02*
X105105200Y-100291900D01*
X100584000Y-98679000D02*
X100584000Y-99949000D01*
X99822000Y-99314000D02*
X100584000Y-99949000D01*
X102158800Y-100027740D02*
X102158800Y-100291900D01*
X99822000Y-99314000D02*
X100584000Y-98806000D01*
X105105200Y-100291900D02*
X105105200Y-100027740D01*
X102158800Y-98336100D02*
X102158800Y-98600260D01*
X99822000Y-99314000D02*
X100584000Y-98679000D01*
X99822000Y-99314000D02*
X100584000Y-99695000D01*
D16*
%TO.C,R3*%
X117700000Y-47740000D02*
X117700000Y-46040000D01*
X121000000Y-47740000D02*
X121000000Y-46040000D01*
D15*
%TO.C,R7*%
X111588503Y-65671700D02*
X111423497Y-65671700D01*
X111423497Y-66916300D02*
X111588503Y-66916300D01*
%TO.C,CR8*%
X154686000Y-101092000D02*
X155448000Y-101727000D01*
X154686000Y-101092000D02*
X155448000Y-100838000D01*
X154686000Y-101092000D02*
X155448000Y-101346000D01*
X154686000Y-101092000D02*
X155448000Y-100584000D01*
X154686000Y-101092000D02*
X155448000Y-101219000D01*
X155448000Y-100457000D02*
X155448000Y-101727000D01*
X159969200Y-100114100D02*
X157022800Y-100114100D01*
X154686000Y-100457000D02*
X154686000Y-101727000D01*
X154686000Y-101092000D02*
X155448000Y-100965000D01*
X154686000Y-101092000D02*
X155448000Y-101473000D01*
X157022800Y-101805740D02*
X157022800Y-102069900D01*
X154686000Y-101092000D02*
X155448000Y-100457000D01*
X159969200Y-102069900D02*
X159969200Y-101805740D01*
X154686000Y-101092000D02*
X155448000Y-100711000D01*
X159969200Y-100378260D02*
X159969200Y-100114100D01*
X155702000Y-101092000D02*
X154432000Y-101092000D01*
X157022800Y-102069900D02*
X159969200Y-102069900D01*
X157022800Y-100114100D02*
X157022800Y-100378260D01*
X154686000Y-101092000D02*
X155448000Y-101600000D01*
%TO.C,J16*%
X160199001Y-81431000D02*
X153745001Y-81431000D01*
X153745001Y-87225000D02*
X160199001Y-87225000D01*
X160199001Y-84697247D02*
X160199001Y-83958753D01*
X153745001Y-81431000D02*
X153745001Y-87225000D01*
X160199001Y-87225000D02*
X160199001Y-86498753D01*
X160199001Y-82157247D02*
X160199001Y-81431000D01*
X157353000Y-89003000D02*
G75*
G03*
X157353000Y-89003000I-381000J0D01*
G01*
D16*
%TO.C,R1*%
X115738000Y-59124000D02*
X115518000Y-59124000D01*
X115738000Y-58224000D02*
X115518000Y-58224000D01*
D15*
%TO.C,J9*%
X151511000Y-77089000D02*
X151511000Y-74295000D01*
X146177000Y-74295000D02*
X146177000Y-77089000D01*
X151511000Y-74295000D02*
X146177000Y-74295000D01*
X146177000Y-77089000D02*
X151511000Y-77089000D01*
X144780000Y-75692000D02*
G75*
G03*
X144780000Y-75692000I-381000J0D01*
G01*
D16*
%TO.C,R2*%
X134178000Y-71446000D02*
X132578000Y-71446000D01*
X134178000Y-72826000D02*
X132578000Y-72826000D01*
D15*
%TO.C,J2*%
X136271000Y-49149000D02*
X136271000Y-43815000D01*
X125857000Y-43815000D02*
X125857000Y-49149000D01*
X136271000Y-43815000D02*
X125857000Y-43815000D01*
X125857000Y-49149000D02*
X136271000Y-49149000D01*
X125603000Y-45212000D02*
G75*
G03*
X125603000Y-45212000I-381000J0D01*
G01*
%TO.C,J14*%
X100912999Y-87479000D02*
X107366999Y-87479000D01*
X107366999Y-87479000D02*
X107366999Y-81685000D01*
X100912999Y-86752753D02*
X100912999Y-87479000D01*
X100912999Y-84212753D02*
X100912999Y-84951247D01*
X100912999Y-81685000D02*
X100912999Y-82411247D01*
X107366999Y-81685000D02*
X100912999Y-81685000D01*
X104521000Y-79907000D02*
G75*
G03*
X104521000Y-79907000I-381000J0D01*
G01*
%TO.C,CR6*%
X154686000Y-104648000D02*
X155448000Y-104140000D01*
X159969200Y-103934260D02*
X159969200Y-103670100D01*
X154686000Y-104648000D02*
X155448000Y-105029000D01*
X154686000Y-104013000D02*
X154686000Y-105283000D01*
X154686000Y-104648000D02*
X155448000Y-105156000D01*
X154686000Y-104648000D02*
X155448000Y-104394000D01*
X154686000Y-104648000D02*
X155448000Y-105283000D01*
X154686000Y-104648000D02*
X155448000Y-104521000D01*
X157022800Y-105361740D02*
X157022800Y-105625900D01*
X154686000Y-104648000D02*
X155448000Y-104775000D01*
X154686000Y-104648000D02*
X155448000Y-104902000D01*
X157022800Y-105625900D02*
X159969200Y-105625900D01*
X154686000Y-104648000D02*
X155448000Y-104267000D01*
X159969200Y-105625900D02*
X159969200Y-105361740D01*
X159969200Y-103670100D02*
X157022800Y-103670100D01*
X157022800Y-103670100D02*
X157022800Y-103934260D01*
X155702000Y-104648000D02*
X154432000Y-104648000D01*
X155448000Y-104013000D02*
X155448000Y-105283000D01*
X154686000Y-104648000D02*
X155448000Y-104013000D01*
%TO.C,CR2*%
X153416000Y-68326000D02*
X154178000Y-68834000D01*
X155752800Y-67348100D02*
X155752800Y-67612260D01*
X155752800Y-69039740D02*
X155752800Y-69303900D01*
X153416000Y-68326000D02*
X154178000Y-67945000D01*
X153416000Y-68326000D02*
X154178000Y-68072000D01*
X158699200Y-67348100D02*
X155752800Y-67348100D01*
X154178000Y-67691000D02*
X154178000Y-68961000D01*
X153416000Y-67691000D02*
X153416000Y-68961000D01*
X158699200Y-67612260D02*
X158699200Y-67348100D01*
X153416000Y-68326000D02*
X154178000Y-67691000D01*
X153416000Y-68326000D02*
X154178000Y-68961000D01*
X153416000Y-68326000D02*
X154178000Y-68453000D01*
X155752800Y-69303900D02*
X158699200Y-69303900D01*
X158699200Y-69303900D02*
X158699200Y-69039740D01*
X153416000Y-68326000D02*
X154178000Y-68199000D01*
X153416000Y-68326000D02*
X154178000Y-68580000D01*
X154432000Y-68326000D02*
X153162000Y-68326000D01*
X153416000Y-68326000D02*
X154178000Y-68707000D01*
X153416000Y-68326000D02*
X154178000Y-67818000D01*
%TD*%
M02*
