%TF.GenerationSoftware,KiCad,Pcbnew,(6.0.9)*%
%TF.CreationDate,2022-12-21T18:09:38-05:00*%
%TF.ProjectId,MotorTestingFixture,4d6f746f-7254-4657-9374-696e67466978,v1*%
%TF.SameCoordinates,Original*%
%TF.FileFunction,Paste,Top*%
%TF.FilePolarity,Positive*%
%FSLAX46Y46*%
G04 Gerber Fmt 4.6, Leading zero omitted, Abs format (unit mm)*
G04 Created by KiCad (PCBNEW (6.0.9)) date 2022-12-21 18:09:38*
%MOMM*%
%LPD*%
G01*
G04 APERTURE LIST*
G04 Aperture macros list*
%AMRoundRect*
0 Rectangle with rounded corners*
0 $1 Rounding radius*
0 $2 $3 $4 $5 $6 $7 $8 $9 X,Y pos of 4 corners*
0 Add a 4 corners polygon primitive as box body*
4,1,4,$2,$3,$4,$5,$6,$7,$8,$9,$2,$3,0*
0 Add four circle primitives for the rounded corners*
1,1,$1+$1,$2,$3*
1,1,$1+$1,$4,$5*
1,1,$1+$1,$6,$7*
1,1,$1+$1,$8,$9*
0 Add four rect primitives between the rounded corners*
20,1,$1+$1,$2,$3,$4,$5,0*
20,1,$1+$1,$4,$5,$6,$7,0*
20,1,$1+$1,$6,$7,$8,$9,0*
20,1,$1+$1,$8,$9,$2,$3,0*%
G04 Aperture macros list end*
%ADD10R,0.930000X0.870000*%
%ADD11R,0.810000X0.930000*%
%ADD12R,1.371600X0.762000*%
%ADD13R,0.762000X0.711200*%
%ADD14R,0.870000X0.930000*%
%ADD15RoundRect,0.150000X0.150000X-0.587500X0.150000X0.587500X-0.150000X0.587500X-0.150000X-0.587500X0*%
%ADD16R,0.990600X1.092200*%
%ADD17R,3.320000X2.440000*%
%ADD18R,1.500000X2.000000*%
%ADD19R,3.800000X2.000000*%
%ADD20R,0.790000X0.930000*%
%ADD21RoundRect,0.094000X0.376000X0.416000X-0.376000X0.416000X-0.376000X-0.416000X0.376000X-0.416000X0*%
G04 APERTURE END LIST*
D10*
%TO.C,C3*%
X114554000Y-61468000D03*
X114554000Y-63028000D03*
%TD*%
D11*
%TO.C,D2*%
X140510000Y-71882000D03*
X138890000Y-71882000D03*
%TD*%
D12*
%TO.C,CR4*%
X155656200Y-63633350D03*
X158602600Y-63633350D03*
%TD*%
D13*
%TO.C,LED3*%
X144005300Y-72390000D03*
X145554700Y-72390000D03*
%TD*%
D14*
%TO.C,C2*%
X133604000Y-69088000D03*
X132044000Y-69088000D03*
%TD*%
%TO.C,C5*%
X137378000Y-83058000D03*
X138938000Y-83058000D03*
%TD*%
D15*
%TO.C,Q1*%
X114874000Y-55547500D03*
X116774000Y-55547500D03*
X115824000Y-53672500D03*
%TD*%
D12*
%TO.C,CR7*%
X102158800Y-103632000D03*
X105105200Y-103632000D03*
%TD*%
%TO.C,CR3*%
X101955600Y-69088000D03*
X104902000Y-69088000D03*
%TD*%
D16*
%TO.C,R6*%
X145681700Y-67818000D03*
X143878300Y-67818000D03*
%TD*%
D13*
%TO.C,LED2*%
X115811300Y-70866000D03*
X117360700Y-70866000D03*
%TD*%
D17*
%TO.C,R4*%
X146150000Y-48840000D03*
X146150000Y-44060000D03*
%TD*%
D16*
%TO.C,R5*%
X117373400Y-66294000D03*
X115570000Y-66294000D03*
%TD*%
D13*
%TO.C,LED1*%
X132829300Y-76708000D03*
X134378700Y-76708000D03*
%TD*%
D12*
%TO.C,CR1*%
X101904800Y-64262000D03*
X104851200Y-64262000D03*
%TD*%
D18*
%TO.C,U2*%
X129018000Y-88900000D03*
D19*
X131318000Y-82600000D03*
D18*
X131318000Y-88900000D03*
X133618000Y-88900000D03*
%TD*%
D11*
%TO.C,D1*%
X112316000Y-70866000D03*
X110696000Y-70866000D03*
%TD*%
D16*
%TO.C,R8*%
X138800000Y-67800000D03*
X140603400Y-67800000D03*
%TD*%
D12*
%TO.C,CR5*%
X102158800Y-99314000D03*
X105105200Y-99314000D03*
%TD*%
D17*
%TO.C,R3*%
X119350000Y-49280000D03*
X119350000Y-44500000D03*
%TD*%
D16*
%TO.C,R7*%
X110604300Y-66294000D03*
X112407700Y-66294000D03*
%TD*%
D12*
%TO.C,CR8*%
X157022800Y-101092000D03*
X159969200Y-101092000D03*
%TD*%
D20*
%TO.C,R1*%
X116448000Y-58674000D03*
X114808000Y-58674000D03*
%TD*%
D14*
%TO.C,C4*%
X137396000Y-88138000D03*
X138956000Y-88138000D03*
%TD*%
D21*
%TO.C,R2*%
X134168000Y-72136000D03*
X132588000Y-72136000D03*
%TD*%
D12*
%TO.C,CR6*%
X157022800Y-104648000D03*
X159969200Y-104648000D03*
%TD*%
%TO.C,CR2*%
X155752800Y-68326000D03*
X158699200Y-68326000D03*
%TD*%
M02*
