%TF.GenerationSoftware,KiCad,Pcbnew,(6.0.9)*%
%TF.CreationDate,2022-12-21T18:09:38-05:00*%
%TF.ProjectId,MotorTestingFixture,4d6f746f-7254-4657-9374-696e67466978,v1*%
%TF.SameCoordinates,Original*%
%TF.FileFunction,Soldermask,Bot*%
%TF.FilePolarity,Negative*%
%FSLAX46Y46*%
G04 Gerber Fmt 4.6, Leading zero omitted, Abs format (unit mm)*
G04 Created by KiCad (PCBNEW (6.0.9)) date 2022-12-21 18:09:38*
%MOMM*%
%LPD*%
G01*
G04 APERTURE LIST*
%ADD10C,1.701800*%
%ADD11C,1.270000*%
%ADD12C,1.651000*%
%ADD13C,1.600200*%
%ADD14R,1.800000X1.800000*%
%ADD15O,1.800000X1.800000*%
%ADD16R,1.390000X1.390000*%
G04 APERTURE END LIST*
D10*
%TO.C,J4*%
X136088001Y-102362000D03*
X132588000Y-102362000D03*
X129088000Y-102362000D03*
%TD*%
D11*
%TO.C,C1*%
X124714000Y-73660000D03*
X126714000Y-73660000D03*
%TD*%
D12*
%TO.C,J10*%
X147066000Y-95250000D03*
X149606000Y-95250000D03*
%TD*%
D13*
%TO.C,J13*%
X104177501Y-91567000D03*
X104177501Y-94107000D03*
X101637501Y-91567000D03*
X101637501Y-94107000D03*
%TD*%
D14*
%TO.C,U1*%
X122390000Y-63630000D03*
D15*
X123660000Y-58550000D03*
X124930000Y-63630000D03*
X126200000Y-58550000D03*
X127470000Y-63630000D03*
X128740000Y-58550000D03*
X130010000Y-63630000D03*
X131280000Y-58550000D03*
X132550000Y-63630000D03*
X133820000Y-58550000D03*
X135090000Y-63630000D03*
X136360000Y-58550000D03*
X137630000Y-63630000D03*
X138900000Y-58550000D03*
X140170000Y-63630000D03*
%TD*%
D13*
%TO.C,J15*%
X156972000Y-75692000D03*
X156972000Y-73152000D03*
X159512000Y-75692000D03*
X159512000Y-73152000D03*
%TD*%
D12*
%TO.C,J11*%
X147066000Y-85598000D03*
X149606000Y-85598000D03*
%TD*%
D13*
%TO.C,J17*%
X157226000Y-95504000D03*
X157226000Y-92964000D03*
X159766000Y-95504000D03*
X159766000Y-92964000D03*
%TD*%
D12*
%TO.C,J7*%
X111760000Y-91440000D03*
X114300000Y-91440000D03*
%TD*%
D13*
%TO.C,J12*%
X103886000Y-74422000D03*
X103886000Y-76962000D03*
X101346000Y-74422000D03*
X101346000Y-76962000D03*
%TD*%
D16*
%TO.C,J1*%
X110550000Y-46850000D03*
%TD*%
D12*
%TO.C,J8*%
X111760000Y-83566000D03*
X114300000Y-83566000D03*
%TD*%
%TO.C,J3*%
X110744000Y-54864000D03*
X110744000Y-52324000D03*
%TD*%
%TO.C,J5*%
X123952000Y-99060000D03*
X121412000Y-99060000D03*
%TD*%
%TO.C,J6*%
X111760000Y-75438000D03*
X114300000Y-75438000D03*
%TD*%
D13*
%TO.C,J16*%
X156972000Y-85598000D03*
X156972000Y-83058000D03*
X159512000Y-85598000D03*
X159512000Y-83058000D03*
%TD*%
D12*
%TO.C,J9*%
X147574000Y-75692000D03*
X150114000Y-75692000D03*
%TD*%
%TO.C,J2*%
X127254000Y-45212000D03*
X127254000Y-47752000D03*
X129794000Y-45212000D03*
X129794000Y-47752000D03*
X132334000Y-45212000D03*
X132334000Y-47752000D03*
X134874000Y-45212000D03*
X134874000Y-47752000D03*
%TD*%
D13*
%TO.C,J14*%
X104140000Y-83312000D03*
X104140000Y-85852000D03*
X101600000Y-83312000D03*
X101600000Y-85852000D03*
%TD*%
M02*
